<svg width="207" height="76" viewBox="0 0 207 76" fill="none" xmlns="http://www.w3.org/2000/svg">
<g filter="url(#filter0_i_302:4)">
<path d="M31.2607 26.9158C31.2607 30.4698 29.9588 33.2672 27.3549 35.3081C24.751 37.3138 21.4257 38.3167 17.3791 38.3167C14.177 38.3167 11.0805 37.437 8.08954 35.6776C6.61165 34.7627 5.39767 33.4784 4.4476 31.8245C3.49753 30.1355 3.02249 28.2178 3.02249 26.0713L9.67299 25.7546C9.67299 27.6548 10.4823 29.1327 12.101 30.1883C13.7196 31.2439 15.5142 31.7718 17.4847 31.7718C21.8832 31.7718 24.0824 30.2235 24.0824 27.127C24.0824 24.5934 22.5869 23.098 19.596 22.6405L13.4733 22.0071C10.4119 21.5497 7.98398 20.4589 6.1894 18.7347C4.39482 17.0105 3.49753 14.5297 3.49753 11.2924C3.49753 8.05515 4.78188 5.38088 7.35059 3.26961C9.91931 1.15834 13.1566 0.102704 17.0624 0.102704C21.0035 0.102704 24.1704 1.10556 26.5632 3.11127C28.9559 5.08178 30.1523 7.6329 30.1523 10.7646L23.6074 11.0813C23.0092 8.01997 20.9507 6.4893 17.4319 6.4893C15.2855 6.4893 13.5964 6.94674 12.3649 7.86162C11.1685 8.77651 10.5703 9.86733 10.5703 11.1341C10.5703 12.3657 11.0101 13.3509 11.8898 14.0899C12.7695 14.7936 13.8603 15.2335 15.1623 15.4094L21.1794 16.0428C27.9003 16.9577 31.2607 20.582 31.2607 26.9158ZM72.1043 6.96433H62.023V38H54.6863V6.96433H44.6578V0.419396H72.1043V6.96433ZM116.878 38H109.225L107.114 31.5078H94.499L92.4405 38H84.7872L96.8214 3.5863C97.3492 2.38991 97.9298 1.563 98.5632 1.10556C99.2318 0.648116 100.041 0.419396 100.991 0.419396C101.941 0.419396 102.698 0.630523 103.261 1.05278C103.859 1.47503 104.387 2.31954 104.844 3.5863L116.878 38ZM105.425 25.3324L100.991 10.4479L96.3464 25.3324H105.425ZM161.041 38H152.543L145.206 24.0656H139.928V38H132.591V8.495C132.591 5.67998 133.242 3.63908 134.544 2.37232C135.846 1.07037 138.028 0.419396 141.089 0.419396H147.317C151.047 0.419396 154.003 1.563 156.185 3.85021C158.402 6.10223 159.51 8.97004 159.51 12.4536C159.51 14.9872 158.841 17.1864 157.504 19.0514C156.202 20.8811 154.584 22.1479 152.648 22.8516L161.041 38ZM146.842 17.9429C148.391 17.9429 149.657 17.4151 150.643 16.3595C151.663 15.2687 152.173 13.9315 152.173 12.3481C152.173 10.7294 151.681 9.42748 150.696 8.44222C149.745 7.45696 148.461 6.96433 146.842 6.96433H143.2C141.019 6.96433 139.928 8.07275 139.928 10.2896V17.9429H146.842ZM202.121 6.96433H192.039V38H184.703V6.96433H174.674V0.419396H202.121V6.96433Z" fill="white"/>
</g>
<path d="M27.3549 35.3081L27.66 35.7043L27.6633 35.7017L27.3549 35.3081ZM8.08954 35.6776L7.82629 36.1028L7.83603 36.1086L8.08954 35.6776ZM4.4476 31.8245L4.01179 32.0697L4.01404 32.0736L4.4476 31.8245ZM3.02249 26.0713L2.99871 25.5719L2.52249 25.5946V26.0713H3.02249ZM9.67299 25.7546H10.173V25.2303L9.64921 25.2552L9.67299 25.7546ZM12.101 30.1883L11.8278 30.6071L11.8278 30.6071L12.101 30.1883ZM19.596 22.6405L19.6716 22.1463L19.6595 22.1444L19.6474 22.1432L19.596 22.6405ZM13.4733 22.0071L13.3994 22.5016L13.4106 22.5033L13.4218 22.5045L13.4733 22.0071ZM6.1894 18.7347L5.84298 19.0952L5.84298 19.0952L6.1894 18.7347ZM26.5632 3.11127L26.2419 3.49446L26.2453 3.49723L26.5632 3.11127ZM30.1523 10.7646L30.1765 11.264L30.6523 11.241V10.7646H30.1523ZM23.6074 11.0813L23.1167 11.1772L23.1996 11.6016L23.6315 11.5807L23.6074 11.0813ZM12.3649 7.86162L12.0667 7.46021L12.0611 7.46444L12.3649 7.86162ZM11.8898 14.0899L11.5681 14.4728L11.5775 14.4803L11.8898 14.0899ZM15.1623 15.4094L15.0953 15.9049L15.1026 15.9059L15.11 15.9067L15.1623 15.4094ZM21.1794 16.0428L21.2469 15.5474L21.2393 15.5463L21.2318 15.5455L21.1794 16.0428ZM30.7607 26.9158C30.7607 30.3293 29.5194 32.9763 27.0464 34.9146L27.6633 35.7017C30.3981 33.5582 31.7607 30.6103 31.7607 26.9158H30.7607ZM27.0498 34.912C24.552 36.836 21.3415 37.8167 17.3791 37.8167V38.8167C21.51 38.8167 24.95 37.7917 27.66 35.7042L27.0498 34.912ZM17.3791 37.8167C14.2736 37.8167 11.2638 36.9647 8.34305 35.2466L7.83603 36.1086C10.8972 37.9093 14.0805 38.8167 17.3791 38.8167V37.8167ZM8.35272 35.2525C6.95204 34.3854 5.79402 33.1645 4.88115 31.5755L4.01404 32.0736C5.00132 33.7922 6.27126 35.1401 7.82636 36.1027L8.35272 35.2525ZM4.88339 31.5794C3.97982 29.9731 3.52249 28.1414 3.52249 26.0713H2.52249C2.52249 28.2942 3.01524 30.298 4.01181 32.0697L4.88339 31.5794ZM3.04627 26.5708L9.69677 26.2541L9.64921 25.2552L2.99871 25.5719L3.04627 26.5708ZM9.17299 25.7546C9.17299 27.8272 10.0706 29.4611 11.8278 30.6071L12.3741 29.7695C10.8941 28.8043 10.173 27.4824 10.173 25.7546H9.17299ZM11.8278 30.6071C13.5294 31.7168 15.4192 32.2718 17.4847 32.2718V31.2718C15.6091 31.2718 13.9098 30.7711 12.3741 29.7695L11.8278 30.6071ZM17.4847 32.2718C19.7273 32.2718 21.4986 31.8798 22.7208 31.0194C23.9751 30.1364 24.5824 28.8095 24.5824 27.127H23.5824C23.5824 28.5409 23.0901 29.5364 22.1452 30.2017C21.1681 30.8896 19.6405 31.2718 17.4847 31.2718V32.2718ZM24.5824 27.127C24.5824 25.7557 24.174 24.6113 23.3143 23.7517C22.4651 22.9024 21.2285 22.3844 19.6716 22.1463L19.5204 23.1348C20.9544 23.3541 21.961 23.8125 22.6072 24.4588C23.2431 25.0946 23.5824 25.9647 23.5824 27.127H24.5824ZM19.6474 22.1432L13.5247 21.5098L13.4218 22.5045L19.5445 23.1379L19.6474 22.1432ZM13.5472 21.5126C10.5631 21.0667 8.23912 20.0106 6.53581 18.3741L5.84298 19.0952C7.72883 20.9071 10.2608 22.0327 13.3994 22.5016L13.5472 21.5126ZM6.53581 18.3741C4.86651 16.7703 3.99753 14.4366 3.99753 11.2924H2.99753C2.99753 14.6229 3.92312 17.2506 5.84298 19.0952L6.53581 18.3741ZM3.99753 11.2924C3.99753 8.20936 5.2113 5.67515 7.66808 3.65588L7.03311 2.88334C4.35247 5.08661 2.99753 7.90095 2.99753 11.2924H3.99753ZM7.66808 3.65588C10.1322 1.63055 13.2512 0.602704 17.0624 0.602704V-0.397296C13.062 -0.397296 9.70639 0.686122 7.03311 2.88334L7.66808 3.65588ZM17.0624 0.602704C20.9176 0.602704 23.9608 1.58229 26.242 3.49445L26.8844 2.72808C24.38 0.62883 21.0893 -0.397296 17.0624 -0.397296V0.602704ZM26.2453 3.49723C28.5214 5.37164 29.6523 7.78052 29.6523 10.7646H30.6523C30.6523 7.48528 29.3905 4.79193 26.881 2.7253L26.2453 3.49723ZM30.1281 10.2652L23.5832 10.5819L23.6315 11.5807L30.1765 11.264L30.1281 10.2652ZM24.0981 10.9854C23.7805 9.3603 23.0629 8.09098 21.9132 7.23607C20.7708 6.38659 19.2595 5.9893 17.4319 5.9893V6.9893C19.1231 6.9893 20.4004 7.35734 21.3165 8.03853C22.2253 8.71429 22.836 9.74098 23.1167 11.1772L24.0981 10.9854ZM17.4319 5.9893C15.2198 5.9893 13.4129 6.46023 12.0667 7.46025L12.663 8.26299C13.78 7.43325 15.3511 6.9893 17.4319 6.9893V5.9893ZM12.0611 7.46444C10.7673 8.45385 10.0703 9.68127 10.0703 11.1341H11.0703C11.0703 10.0534 11.5696 9.09916 12.6686 8.2588L12.0611 7.46444ZM10.0703 11.1341C10.0703 12.5013 10.5665 13.6312 11.5682 14.4727L12.2114 13.707C11.4538 13.0706 11.0703 12.2301 11.0703 11.1341H10.0703ZM11.5775 14.4803C12.539 15.2495 13.7187 15.7189 15.0953 15.9049L15.2293 14.9139C14.002 14.7481 13.0001 14.3378 12.2022 13.6994L11.5775 14.4803ZM15.11 15.9067L21.1271 16.54L21.2318 15.5455L15.2146 14.9122L15.11 15.9067ZM21.112 16.5382C24.4001 16.9858 26.7972 18.0868 28.3737 19.7872C29.9462 21.4831 30.7607 23.8383 30.7607 26.9158H31.7607C31.7607 23.6596 30.8951 21.0357 29.107 19.1073C27.3232 17.1833 24.6795 16.0146 21.2469 15.5474L21.112 16.5382ZM72.1043 6.96433V7.46433H72.6043V6.96433H72.1043ZM62.023 6.96433V6.46433H61.523V6.96433H62.023ZM62.023 38V38.5H62.523V38H62.023ZM54.6863 38H54.1863V38.5H54.6863V38ZM54.6863 6.96433H55.1863V6.46433H54.6863V6.96433ZM44.6578 6.96433H44.1578V7.46433H44.6578V6.96433ZM44.6578 0.419396V-0.0806037H44.1578V0.419396H44.6578ZM72.1043 0.419396H72.6043V-0.0806037H72.1043V0.419396ZM72.1043 6.46433H62.023V7.46433H72.1043V6.46433ZM61.523 6.96433V38H62.523V6.96433H61.523ZM62.023 37.5H54.6863V38.5H62.023V37.5ZM55.1863 38V6.96433H54.1863V38H55.1863ZM54.6863 6.46433H44.6578V7.46433H54.6863V6.46433ZM45.1578 6.96433V0.419396H44.1578V6.96433H45.1578ZM44.6578 0.919396H72.1043V-0.0806037H44.6578V0.919396ZM71.6043 0.419396V6.96433H72.6043V0.419396H71.6043ZM116.878 38V38.5H117.583L117.35 37.835L116.878 38ZM109.225 38L108.75 38.1546L108.862 38.5H109.225V38ZM107.114 31.5078L107.589 31.3532L107.477 31.0078H107.114V31.5078ZM94.499 31.5078V31.0078H94.133L94.0224 31.3567L94.499 31.5078ZM92.4405 38V38.5H92.8065L92.9172 38.1511L92.4405 38ZM84.7872 38L84.3152 37.835L84.0827 38.5H84.7872V38ZM96.8214 3.5863L96.364 3.38448L96.356 3.40258L96.3495 3.42125L96.8214 3.5863ZM98.5632 1.10556L98.2808 0.692769L98.2705 0.700217L98.5632 1.10556ZM103.261 1.05278L102.961 1.45278L102.967 1.4571L102.972 1.46126L103.261 1.05278ZM104.844 3.5863L105.316 3.42125L105.315 3.41648L104.844 3.5863ZM105.425 25.3324V25.8324H106.095L105.904 25.1896L105.425 25.3324ZM100.991 10.4479L101.47 10.3052L101.002 8.73381L100.514 10.299L100.991 10.4479ZM96.3464 25.3324L95.8691 25.1834L95.6666 25.8324H96.3464V25.3324ZM116.878 37.5H109.225V38.5H116.878V37.5ZM109.701 37.8454L107.589 31.3532L106.638 31.6625L108.75 38.1546L109.701 37.8454ZM107.114 31.0078H94.499V32.0078H107.114V31.0078ZM94.0224 31.3567L91.9639 37.8489L92.9172 38.1511L94.9756 31.659L94.0224 31.3567ZM92.4405 37.5H84.7872V38.5H92.4405V37.5ZM85.2592 38.165L97.2934 3.75135L96.3495 3.42125L84.3152 37.835L85.2592 38.165ZM97.2789 3.78812C97.7923 2.62448 98.328 1.89222 98.856 1.5109L98.2705 0.700217C97.5317 1.23377 96.9062 2.15535 96.364 3.38448L97.2789 3.78812ZM98.8456 1.51821C99.4174 1.12698 100.124 0.919396 100.991 0.919396V-0.0806037C99.9582 -0.0806037 99.0462 0.169255 98.2809 0.692902L98.8456 1.51821ZM100.991 0.919396C101.871 0.919396 102.51 1.11478 102.961 1.45278L103.561 0.652775C102.885 0.146261 102.012 -0.0806037 100.991 -0.0806037V0.919396ZM102.972 1.46126C103.442 1.79265 103.926 2.51582 104.374 3.75612L105.315 3.41648C104.848 2.12326 104.276 1.15741 103.549 0.644292L102.972 1.46126ZM104.372 3.75135L116.407 38.165L117.35 37.835L105.316 3.42125L104.372 3.75135ZM105.904 25.1896L101.47 10.3052L100.512 10.5907L104.946 25.4751L105.904 25.1896ZM100.514 10.299L95.8691 25.1834L96.8237 25.4813L101.468 10.5969L100.514 10.299ZM96.3464 25.8324H105.425V24.8324H96.3464V25.8324ZM161.041 38V38.5H161.889L161.478 37.7577L161.041 38ZM152.543 38L152.1 38.2329L152.241 38.5H152.543V38ZM145.206 24.0656L145.649 23.8327L145.508 23.5656H145.206V24.0656ZM139.928 24.0656V23.5656H139.428V24.0656H139.928ZM139.928 38V38.5H140.428V38H139.928ZM132.591 38H132.091V38.5H132.591V38ZM134.544 2.37232L134.893 2.73072L134.898 2.72587L134.544 2.37232ZM156.185 3.85021L155.823 4.19536L155.828 4.20097L156.185 3.85021ZM157.504 19.0514L157.098 18.76L157.097 18.7615L157.504 19.0514ZM152.648 22.8516L152.478 22.3817L151.927 22.5818L152.211 23.0939L152.648 22.8516ZM150.643 16.3595L150.278 16.0179L150.277 16.0183L150.643 16.3595ZM150.696 8.44222L150.336 8.78935L150.342 8.79578L150.696 8.44222ZM139.928 17.9429H139.428V18.4429H139.928V17.9429ZM161.041 37.5H152.543V38.5H161.041V37.5ZM152.985 37.7671L145.649 23.8327L144.764 24.2986L152.1 38.2329L152.985 37.7671ZM145.206 23.5656H139.928V24.5656H145.206V23.5656ZM139.428 24.0656V38H140.428V24.0656H139.428ZM139.928 37.5H132.591V38.5H139.928V37.5ZM133.091 38V8.495H132.091V38H133.091ZM133.091 8.495C133.091 5.74229 133.73 3.86248 134.893 2.73068L134.196 2.01396C132.755 3.41568 132.091 5.61766 132.091 8.495H133.091ZM134.898 2.72587C136.06 1.56352 138.077 0.919396 141.089 0.919396V-0.0806037C137.978 -0.0806037 135.632 0.577221 134.191 2.01877L134.898 2.72587ZM141.089 0.919396H147.317V-0.0806037H141.089V0.919396ZM147.317 0.919396C150.937 0.919396 153.753 2.0248 155.823 4.19532L156.547 3.5051C154.254 1.1012 151.157 -0.0806037 147.317 -0.0806037V0.919396ZM155.828 4.20097C157.943 6.34947 159.01 9.08657 159.01 12.4536H160.01C160.01 8.85351 158.86 5.85499 156.541 3.49945L155.828 4.20097ZM159.01 12.4536C159.01 14.894 158.368 16.9888 157.098 18.76L157.911 19.3427C159.315 17.384 160.01 15.0803 160.01 12.4536H159.01ZM157.097 18.7615C155.848 20.5165 154.309 21.7158 152.478 22.3817L152.819 23.3215C154.859 22.58 156.557 21.2458 157.912 19.3412L157.097 18.7615ZM152.211 23.0939L160.603 38.2423L161.478 37.7577L153.086 22.6093L152.211 23.0939ZM146.842 18.4429C148.518 18.4429 149.921 17.8655 151.008 16.7006L150.277 16.0183C149.394 16.9647 148.263 17.4429 146.842 17.4429V18.4429ZM151.008 16.7011C152.121 15.5117 152.673 14.05 152.673 12.3481H151.673C151.673 13.8131 151.206 15.0257 150.278 16.0179L151.008 16.7011ZM152.673 12.3481C152.673 10.62 152.143 9.18291 151.049 8.08867L150.342 8.79578C151.218 9.67206 151.673 10.8389 151.673 12.3481H152.673ZM151.055 8.09515C149.994 6.99442 148.57 6.46433 146.842 6.46433V7.46433C148.352 7.46433 149.497 7.91951 150.336 8.78929L151.055 8.09515ZM146.842 6.46433H143.2V7.46433H146.842V6.46433ZM143.2 6.46433C142.031 6.46433 141.062 6.76215 140.39 7.44493C139.719 8.12624 139.428 9.10609 139.428 10.2896H140.428C140.428 9.25624 140.682 8.57347 141.103 8.14636C141.521 7.72073 142.189 7.46433 143.2 7.46433V6.46433ZM139.428 10.2896V17.9429H140.428V10.2896H139.428ZM139.928 18.4429H146.842V17.4429H139.928V18.4429ZM202.121 6.96433V7.46433H202.621V6.96433H202.121ZM192.039 6.96433V6.46433H191.539V6.96433H192.039ZM192.039 38V38.5H192.539V38H192.039ZM184.703 38H184.203V38.5H184.703V38ZM184.703 6.96433H185.203V6.46433H184.703V6.96433ZM174.674 6.96433H174.174V7.46433H174.674V6.96433ZM174.674 0.419396V-0.0806037H174.174V0.419396H174.674ZM202.121 0.419396H202.621V-0.0806037H202.121V0.419396ZM202.121 6.46433H192.039V7.46433H202.121V6.46433ZM191.539 6.96433V38H192.539V6.96433H191.539ZM192.039 37.5H184.703V38.5H192.039V37.5ZM185.203 38V6.96433H184.203V38H185.203ZM184.703 6.46433H174.674V7.46433H184.703V6.46433ZM175.174 6.96433V0.419396H174.174V6.96433H175.174ZM174.674 0.919396H202.121V-0.0806037H174.674V0.919396ZM201.621 0.419396V6.96433H202.621V0.419396H201.621Z" fill="black"/>
<g filter="url(#filter1_i_302:4)">
<path d="M22.6623 75H14.27C11.1031 75 8.80708 74.393 7.38197 73.179C5.98325 71.9387 5.28389 69.933 5.28389 67.1619V46.8145H10.7864V67.1619C10.7864 68.2703 11.0371 69.0357 11.5385 69.4579C12.04 69.8802 12.9504 70.0913 14.27 70.0913H22.6623V75ZM56.8967 75H46.921C43.7541 75 41.524 74.459 40.2309 73.377C38.9641 72.2685 38.3307 70.3288 38.3307 67.5578V46.8145H56.8967V51.7233H43.8332V58.3342H52.9777L52.5818 63.2429H43.8332V67.1619C43.8332 68.2703 44.0839 69.0357 44.5854 69.4579C45.0868 69.8802 45.9973 70.0913 47.3168 70.0913H56.8967V75ZM94.9577 75H89.2177L87.6342 70.1309H78.1731L76.6292 75H70.8892L79.9149 49.1897C80.3108 48.2924 80.7462 47.6723 81.2213 47.3292C81.7227 46.9861 82.3297 46.8145 83.0422 46.8145C83.7548 46.8145 84.3222 46.9729 84.7444 47.2896C85.1931 47.6063 85.5889 48.2397 85.932 49.1897L94.9577 75ZM86.3675 65.4993L83.0422 54.3359L79.5586 65.4993H86.3675ZM108.365 61.7386V58.255C108.365 54.5867 109.329 51.7232 111.255 49.6648C113.182 47.6063 115.847 46.577 119.252 46.577C122.656 46.577 125.388 47.6063 127.446 49.6648C128.897 51.1163 129.623 53.2935 129.623 56.1965H124.477C124.477 53.056 122.801 51.4857 119.45 51.4857C118.447 51.4857 117.589 51.6837 116.876 52.0795C116.19 52.449 115.676 52.8844 115.333 53.3859C114.99 53.8873 114.726 54.6262 114.541 55.6027C114.356 56.5792 114.251 57.3973 114.224 58.0571C114.198 58.7168 114.185 59.6009 114.185 60.7093C114.185 61.8178 114.185 62.5699 114.185 62.9658C114.211 63.3352 114.251 63.9554 114.303 64.8263C114.383 65.6708 114.488 66.2778 114.62 66.6473C114.778 67.0168 114.99 67.4918 115.253 68.0724C115.544 68.653 115.9 69.0621 116.322 69.2996C117.404 69.9857 118.631 70.3288 120.004 70.3288C122.3 70.3288 123.923 69.3524 124.873 67.3994V65.4993H121.468V60.9073H129.584V69.4183C128.766 71.3449 127.472 72.7964 125.704 73.7728C123.936 74.7493 121.93 75.2375 119.687 75.2375C115.702 75.2375 112.812 74.1291 111.018 71.9123C109.249 69.669 108.365 66.2778 108.365 61.7386ZM167.298 46.8145V65.3409C167.298 68.4023 166.256 70.817 164.171 72.5852C162.112 74.3534 159.566 75.2375 156.531 75.2375C153.496 75.2375 150.936 74.3534 148.851 72.5852C146.793 70.817 145.763 68.4023 145.763 65.3409V46.8145H151.266V65.143C151.266 66.8848 151.741 68.1912 152.691 69.0621C153.667 69.9066 154.947 70.3288 156.531 70.3288C158.114 70.3288 159.394 69.9066 160.371 69.0621C161.347 68.1912 161.835 66.8848 161.835 65.143V46.8145H167.298ZM202.885 75H192.909C189.742 75 187.512 74.459 186.219 73.377C184.953 72.2685 184.319 70.3288 184.319 67.5578V46.8145H202.885V51.7233H189.822V58.3342H198.966L198.57 63.2429H189.822V67.1619C189.822 68.2703 190.072 69.0357 190.574 69.4579C191.075 69.8802 191.986 70.0913 193.305 70.0913H202.885V75Z" fill="#6BD425"/>
</g>
<path d="M22.6623 75V75.5H23.1623V75H22.6623ZM7.38197 73.179L7.05016 73.5532L7.05773 73.5597L7.38197 73.179ZM5.28389 46.8145V46.3145H4.78389V46.8145H5.28389ZM10.7864 46.8145H11.2864V46.3145H10.7864V46.8145ZM11.5385 69.4579L11.2165 69.8404L11.2165 69.8404L11.5385 69.4579ZM22.6623 70.0913H23.1623V69.5913H22.6623V70.0913ZM22.6623 74.5H14.27V75.5H22.6623V74.5ZM14.27 74.5C11.1464 74.5 8.99644 73.8975 7.7062 72.7984L7.05773 73.5597C8.61771 74.8885 11.0597 75.5 14.27 75.5V74.5ZM7.71371 72.8049C6.465 71.6976 5.78389 69.8597 5.78389 67.1619H4.78389C4.78389 70.0062 5.50151 72.1797 7.05022 73.5531L7.71371 72.8049ZM5.78389 67.1619V46.8145H4.78389V67.1619H5.78389ZM5.28389 47.3145H10.7864V46.3145H5.28389V47.3145ZM10.2864 46.8145V67.1619H11.2864V46.8145H10.2864ZM10.2864 67.1619C10.2864 68.3195 10.544 69.2741 11.2165 69.8404L11.8606 69.0755C11.5302 68.7972 11.2864 68.2212 11.2864 67.1619H10.2864ZM11.2165 69.8404C11.8631 70.3849 12.9335 70.5913 14.27 70.5913V69.5913C12.9674 69.5913 12.2168 69.3755 11.8606 69.0755L11.2165 69.8404ZM14.27 70.5913H22.6623V69.5913H14.27V70.5913ZM22.1623 70.0913V75H23.1623V70.0913H22.1623ZM56.8967 75V75.5H57.3967V75H56.8967ZM40.2309 73.377L39.9015 73.7533L39.91 73.7604L40.2309 73.377ZM38.3307 46.8145V46.3145H37.8307V46.8145H38.3307ZM56.8967 46.8145H57.3967V46.3145H56.8967V46.8145ZM56.8967 51.7233V52.2233H57.3967V51.7233H56.8967ZM43.8332 51.7233V51.2233H43.3332V51.7233H43.8332ZM43.8332 58.3342H43.3332V58.8342H43.8332V58.3342ZM52.9777 58.3342L53.476 58.3744L53.5196 57.8342H52.9777V58.3342ZM52.5818 63.2429V63.7429H53.0431L53.0802 63.2831L52.5818 63.2429ZM43.8332 63.2429V62.7429H43.3332V63.2429H43.8332ZM44.5854 69.4579L44.2633 69.8404L44.2633 69.8404L44.5854 69.4579ZM56.8967 70.0913H57.3967V69.5913H56.8967V70.0913ZM56.8967 74.5H46.921V75.5H56.8967V74.5ZM46.921 74.5C43.7814 74.5 41.7041 73.9577 40.5517 72.9935L39.91 73.7604C41.3439 74.9602 43.7267 75.5 46.921 75.5V74.5ZM40.5601 73.0007C39.4552 72.0338 38.8307 70.2751 38.8307 67.5578H37.8307C37.8307 70.3825 38.4731 72.5033 39.9016 73.7532L40.5601 73.0007ZM38.8307 67.5578V46.8145H37.8307V67.5578H38.8307ZM38.3307 47.3145H56.8967V46.3145H38.3307V47.3145ZM56.3967 46.8145V51.7233H57.3967V46.8145H56.3967ZM56.8967 51.2233H43.8332V52.2233H56.8967V51.2233ZM43.3332 51.7233V58.3342H44.3332V51.7233H43.3332ZM43.8332 58.8342H52.9777V57.8342H43.8332V58.8342ZM52.4793 58.294L52.0834 63.2027L53.0802 63.2831L53.476 58.3744L52.4793 58.294ZM52.5818 62.7429H43.8332V63.7429H52.5818V62.7429ZM43.3332 63.2429V67.1619H44.3332V63.2429H43.3332ZM43.3332 67.1619C43.3332 68.3195 43.5909 69.2741 44.2633 69.8404L44.9074 69.0755C44.577 68.7972 44.3332 68.2212 44.3332 67.1619H43.3332ZM44.2633 69.8404C44.9099 70.3849 45.9803 70.5913 47.3168 70.5913V69.5913C46.0142 69.5913 45.2637 69.3755 44.9074 69.0755L44.2633 69.8404ZM47.3168 70.5913H56.8967V69.5913H47.3168V70.5913ZM56.3967 70.0913V75H57.3967V70.0913H56.3967ZM94.9577 75V75.5H95.6622L95.4297 74.835L94.9577 75ZM89.2177 75L88.7422 75.1546L88.8545 75.5H89.2177V75ZM87.6342 70.1309L88.1097 69.9763L87.9974 69.6309H87.6342V70.1309ZM78.1731 70.1309V69.6309H77.8071L77.6965 69.9798L78.1731 70.1309ZM76.6292 75V75.5H76.9952L77.1059 75.1511L76.6292 75ZM70.8892 75L70.4173 74.835L70.1847 75.5H70.8892V75ZM79.9149 49.1897L79.4574 48.9879L79.4495 49.006L79.4429 49.0247L79.9149 49.1897ZM81.2213 47.3292L80.9388 46.9164L80.9285 46.9238L81.2213 47.3292ZM84.7444 47.2896L84.4444 47.6896L84.4502 47.6939L84.4561 47.6981L84.7444 47.2896ZM85.932 49.1897L86.404 49.0247L86.4023 49.0199L85.932 49.1897ZM86.3675 65.4993V65.9993H87.0381L86.8467 65.3565L86.3675 65.4993ZM83.0422 54.3359L83.5214 54.1932L83.0533 52.6218L82.5649 54.187L83.0422 54.3359ZM79.5586 65.4993L79.0813 65.3503L78.8788 65.9993H79.5586V65.4993ZM94.9577 74.5H89.2177V75.5H94.9577V74.5ZM89.6932 74.8454L88.1097 69.9763L87.1587 70.2855L88.7422 75.1546L89.6932 74.8454ZM87.6342 69.6309H78.1731V70.6309H87.6342V69.6309ZM77.6965 69.9798L76.1526 74.8489L77.1059 75.1511L78.6497 70.282L77.6965 69.9798ZM76.6292 74.5H70.8892V75.5H76.6292V74.5ZM71.3612 75.165L80.3869 49.3548L79.4429 49.0247L70.4173 74.835L71.3612 75.165ZM80.3724 49.3915C80.7538 48.527 81.1444 48.0015 81.514 47.7345L80.9285 46.9238C80.3481 47.343 79.8678 48.0579 79.4574 48.9879L80.3724 49.3915ZM81.5036 47.7418C81.9083 47.465 82.4126 47.3145 83.0422 47.3145V46.3145C82.2468 46.3145 81.5371 46.5072 80.9389 46.9165L81.5036 47.7418ZM83.0422 47.3145C83.684 47.3145 84.1345 47.4572 84.4444 47.6896L85.0444 46.8896C84.5098 46.4886 83.8255 46.3145 83.0422 46.3145V47.3145ZM84.4561 47.6981C84.776 47.9239 85.1282 48.4359 85.4617 49.3595L86.4023 49.0199C86.0497 48.0434 85.6101 47.2887 85.0328 46.8811L84.4561 47.6981ZM85.4601 49.3548L94.4857 75.165L95.4297 74.835L86.404 49.0247L85.4601 49.3548ZM86.8467 65.3565L83.5214 54.1932L82.563 54.4787L85.8883 65.642L86.8467 65.3565ZM82.5649 54.187L79.0813 65.3503L80.0359 65.6482L83.5195 54.4849L82.5649 54.187ZM79.5586 65.9993H86.3675V64.9993H79.5586V65.9993ZM111.255 49.6648L111.62 50.0064L111.62 50.0064L111.255 49.6648ZM127.446 49.6648L127.092 50.0183L127.446 49.6648ZM129.623 56.1965V56.6965H130.123V56.1965H129.623ZM124.477 56.1965H123.977V56.6965H124.477V56.1965ZM116.876 52.0795L117.114 52.5198L117.119 52.5166L116.876 52.0795ZM115.333 53.3859L114.92 53.1035L114.92 53.1035L115.333 53.3859ZM114.224 58.0571L113.725 58.0371L113.725 58.0371L114.224 58.0571ZM114.185 62.9658H113.685V62.9836L113.686 63.0014L114.185 62.9658ZM114.303 64.8263L113.804 64.8566L113.805 64.8648L113.806 64.873L114.303 64.8263ZM114.62 66.6473L114.149 66.8155L114.154 66.83L114.16 66.8442L114.62 66.6473ZM115.253 68.0724L114.798 68.2793L114.802 68.2877L114.806 68.296L115.253 68.0724ZM116.322 69.2996L116.59 68.8773L116.579 68.8703L116.567 68.8638L116.322 69.2996ZM124.873 67.3994L125.323 67.6182L125.373 67.5146V67.3994H124.873ZM124.873 65.4993H125.373V64.9993H124.873V65.4993ZM121.468 65.4993H120.968V65.9993H121.468V65.4993ZM121.468 60.9073V60.4073H120.968V60.9073H121.468ZM129.584 60.9073H130.084V60.4073H129.584V60.9073ZM129.584 69.4183L130.044 69.6138L130.084 69.5201V69.4183H129.584ZM125.704 73.7728L125.946 74.2105L125.704 73.7728ZM111.018 71.9123L110.625 72.2218L110.629 72.2269L111.018 71.9123ZM108.865 61.7386V58.255H107.865V61.7386H108.865ZM108.865 58.255C108.865 54.6741 109.804 51.947 111.62 50.0064L110.89 49.3231C108.853 51.4995 107.865 54.4992 107.865 58.255H108.865ZM111.62 50.0064C113.433 48.0695 115.955 47.077 119.252 47.077V46.077C115.74 46.077 112.93 47.143 110.89 49.3231L111.62 50.0064ZM119.252 47.077C122.548 47.077 125.144 48.0694 127.092 50.0183L127.8 49.3112C125.631 47.1431 122.764 46.077 119.252 46.077V47.077ZM127.092 50.0183C128.417 51.343 129.123 53.3706 129.123 56.1965H130.123C130.123 53.2164 129.378 50.8895 127.8 49.3112L127.092 50.0183ZM129.623 55.6965H124.477V56.6965H129.623V55.6965ZM124.977 56.1965C124.977 54.5405 124.534 53.209 123.562 52.2986C122.597 51.3939 121.195 50.9857 119.45 50.9857V51.9857C121.056 51.9857 122.168 52.3627 122.878 53.0283C123.582 53.6881 123.977 54.7119 123.977 56.1965H124.977ZM119.45 50.9857C118.381 50.9857 117.436 51.1968 116.634 51.6424L117.119 52.5166C117.742 52.1705 118.512 51.9857 119.45 51.9857V50.9857ZM116.639 51.6393C115.902 52.0362 115.319 52.5202 114.92 53.1035L115.745 53.6682C116.032 53.2487 116.478 52.8618 117.114 52.5198L116.639 51.6393ZM114.92 53.1035C114.521 53.6869 114.24 54.5033 114.05 55.5098L115.032 55.6957C115.211 54.7492 115.458 54.0877 115.745 53.6682L114.92 53.1035ZM114.05 55.5098C113.862 56.4996 113.752 57.3439 113.725 58.0371L114.724 58.077C114.749 57.4507 114.85 56.6588 115.032 55.6957L114.05 55.5098ZM113.725 58.0371C113.698 58.7065 113.685 59.5981 113.685 60.7093H114.685C114.685 59.6038 114.698 58.7272 114.724 58.077L113.725 58.0371ZM113.685 60.7093C113.685 60.7115 113.685 60.7137 113.685 60.7158C113.685 60.718 113.685 60.7202 113.685 60.7223C113.685 60.7245 113.685 60.7266 113.685 60.7288C113.685 60.7309 113.685 60.7331 113.685 60.7353C113.685 60.7374 113.685 60.7396 113.685 60.7417C113.685 60.7439 113.685 60.746 113.685 60.7482C113.685 60.7503 113.685 60.7525 113.685 60.7546C113.685 60.7568 113.685 60.7589 113.685 60.761C113.685 60.7632 113.685 60.7653 113.685 60.7675C113.685 60.7696 113.685 60.7717 113.685 60.7739C113.685 60.776 113.685 60.7782 113.685 60.7803C113.685 60.7824 113.685 60.7846 113.685 60.7867C113.685 60.7888 113.685 60.791 113.685 60.7931C113.685 60.7952 113.685 60.7973 113.685 60.7995C113.685 60.8016 113.685 60.8037 113.685 60.8058C113.685 60.808 113.685 60.8101 113.685 60.8122C113.685 60.8143 113.685 60.8165 113.685 60.8186C113.685 60.8207 113.685 60.8228 113.685 60.8249C113.685 60.827 113.685 60.8292 113.685 60.8313C113.685 60.8334 113.685 60.8355 113.685 60.8376C113.685 60.8397 113.685 60.8418 113.685 60.8439C113.685 60.846 113.685 60.8481 113.685 60.8503C113.685 60.8524 113.685 60.8545 113.685 60.8566C113.685 60.8587 113.685 60.8608 113.685 60.8629C113.685 60.865 113.685 60.8671 113.685 60.8692C113.685 60.8713 113.685 60.8734 113.685 60.8754C113.685 60.8775 113.685 60.8796 113.685 60.8817C113.685 60.8838 113.685 60.8859 113.685 60.888C113.685 60.8901 113.685 60.8922 113.685 60.8943C113.685 60.8963 113.685 60.8984 113.685 60.9005C113.685 60.9026 113.685 60.9047 113.685 60.9068C113.685 60.9088 113.685 60.9109 113.685 60.913C113.685 60.9151 113.685 60.9171 113.685 60.9192C113.685 60.9213 113.685 60.9234 113.685 60.9254C113.685 60.9275 113.685 60.9296 113.685 60.9317C113.685 60.9337 113.685 60.9358 113.685 60.9379C113.685 60.9399 113.685 60.942 113.685 60.9441C113.685 60.9461 113.685 60.9482 113.685 60.9503C113.685 60.9523 113.685 60.9544 113.685 60.9564C113.685 60.9585 113.685 60.9605 113.685 60.9626C113.685 60.9647 113.685 60.9667 113.685 60.9688C113.685 60.9708 113.685 60.9729 113.685 60.9749C113.685 60.977 113.685 60.979 113.685 60.9811C113.685 60.9831 113.685 60.9852 113.685 60.9872C113.685 60.9893 113.685 60.9913 113.685 60.9933C113.685 60.9954 113.685 60.9974 113.685 60.9995C113.685 61.0015 113.685 61.0035 113.685 61.0056C113.685 61.0076 113.685 61.0097 113.685 61.0117C113.685 61.0137 113.685 61.0158 113.685 61.0178C113.685 61.0198 113.685 61.0219 113.685 61.0239C113.685 61.0259 113.685 61.0279 113.685 61.03C113.685 61.032 113.685 61.034 113.685 61.036C113.685 61.0381 113.685 61.0401 113.685 61.0421C113.685 61.0441 113.685 61.0461 113.685 61.0482C113.685 61.0502 113.685 61.0522 113.685 61.0542C113.685 61.0562 113.685 61.0582 113.685 61.0603C113.685 61.0623 113.685 61.0643 113.685 61.0663C113.685 61.0683 113.685 61.0703 113.685 61.0723C113.685 61.0743 113.685 61.0763 113.685 61.0783C113.685 61.0803 113.685 61.0823 113.685 61.0843C113.685 61.0863 113.685 61.0883 113.685 61.0903C113.685 61.0923 113.685 61.0943 113.685 61.0963C113.685 61.0983 113.685 61.1003 113.685 61.1023C113.685 61.1043 113.685 61.1063 113.685 61.1083C113.685 61.1103 113.685 61.1123 113.685 61.1143C113.685 61.1163 113.685 61.1182 113.685 61.1202C113.685 61.1222 113.685 61.1242 113.685 61.1262C113.685 61.1282 113.685 61.1301 113.685 61.1321C113.685 61.1341 113.685 61.1361 113.685 61.1381C113.685 61.14 113.685 61.142 113.685 61.144C113.685 61.146 113.685 61.1479 113.685 61.1499C113.685 61.1519 113.685 61.1538 113.685 61.1558C113.685 61.1578 113.685 61.1598 113.685 61.1617C113.685 61.1637 113.685 61.1657 113.685 61.1676C113.685 61.1696 113.685 61.1715 113.685 61.1735C113.685 61.1755 113.685 61.1774 113.685 61.1794C113.685 61.1813 113.685 61.1833 113.685 61.1853C113.685 61.1872 113.685 61.1892 113.685 61.1911C113.685 61.1931 113.685 61.195 113.685 61.197C113.685 61.1989 113.685 61.2009 113.685 61.2028C113.685 61.2048 113.685 61.2067 113.685 61.2087C113.685 61.2106 113.685 61.2125 113.685 61.2145C113.685 61.2164 113.685 61.2184 113.685 61.2203C113.685 61.2222 113.685 61.2242 113.685 61.2261C113.685 61.2281 113.685 61.23 113.685 61.2319C113.685 61.2339 113.685 61.2358 113.685 61.2377C113.685 61.2397 113.685 61.2416 113.685 61.2435C113.685 61.2454 113.685 61.2474 113.685 61.2493C113.685 61.2512 113.685 61.2531 113.685 61.2551C113.685 61.257 113.685 61.2589 113.685 61.2608C113.685 61.2628 113.685 61.2647 113.685 61.2666C113.685 61.2685 113.685 61.2704 113.685 61.2723C113.685 61.2743 113.685 61.2762 113.685 61.2781C113.685 61.28 113.685 61.2819 113.685 61.2838C113.685 61.2857 113.685 61.2876 113.685 61.2895C113.685 61.2914 113.685 61.2933 113.685 61.2953C113.685 61.2972 113.685 61.2991 113.685 61.301C113.685 61.3029 113.685 61.3048 113.685 61.3067C113.685 61.3086 113.685 61.3105 113.685 61.3123C113.685 61.3142 113.685 61.3161 113.685 61.318C113.685 61.3199 113.685 61.3218 113.685 61.3237C113.685 61.3256 113.685 61.3275 113.685 61.3294C113.685 61.3313 113.685 61.3331 113.685 61.335C113.685 61.3369 113.685 61.3388 113.685 61.3407C113.685 61.3426 113.685 61.3444 113.685 61.3463C113.685 61.3482 113.685 61.3501 113.685 61.352C113.685 61.3538 113.685 61.3557 113.685 61.3576C113.685 61.3595 113.685 61.3613 113.685 61.3632C113.685 61.3651 113.685 61.3669 113.685 61.3688C113.685 61.3707 113.685 61.3726 113.685 61.3744C113.685 61.3763 113.685 61.3781 113.685 61.38C113.685 61.3819 113.685 61.3837 113.685 61.3856C113.685 61.3875 113.685 61.3893 113.685 61.3912C113.685 61.393 113.685 61.3949 113.685 61.3967C113.685 61.3986 113.685 61.4005 113.685 61.4023C113.685 61.4042 113.685 61.406 113.685 61.4079C113.685 61.4097 113.685 61.4116 113.685 61.4134C113.685 61.4152 113.685 61.4171 113.685 61.4189C113.685 61.4208 113.685 61.4226 113.685 61.4245C113.685 61.4263 113.685 61.4281 113.685 61.43C113.685 61.4318 113.685 61.4337 113.685 61.4355C113.685 61.4373 113.685 61.4392 113.685 61.441C113.685 61.4428 113.685 61.4447 113.685 61.4465C113.685 61.4483 113.685 61.4502 113.685 61.452C113.685 61.4538 113.685 61.4556 113.685 61.4575C113.685 61.4593 113.685 61.4611 113.685 61.4629C113.685 61.4648 113.685 61.4666 113.685 61.4684C113.685 61.4702 113.685 61.472 113.685 61.4739C113.685 61.4757 113.685 61.4775 113.685 61.4793C113.685 61.4811 113.685 61.4829 113.685 61.4847C113.685 61.4865 113.685 61.4884 113.685 61.4902C113.685 61.492 113.685 61.4938 113.685 61.4956C113.685 61.4974 113.685 61.4992 113.685 61.501C113.685 61.5028 113.685 61.5046 113.685 61.5064C113.685 61.5082 113.685 61.51 113.685 61.5118C113.685 61.5136 113.685 61.5154 113.685 61.5172C113.685 61.519 113.685 61.5208 113.685 61.5226C113.685 61.5244 113.685 61.5262 113.685 61.528C113.685 61.5297 113.685 61.5315 113.685 61.5333C113.685 61.5351 113.685 61.5369 113.685 61.5387C113.685 61.5405 113.685 61.5422 113.685 61.544C113.685 61.5458 113.685 61.5476 113.685 61.5494C113.685 61.5511 113.685 61.5529 113.685 61.5547C113.685 61.5565 113.685 61.5582 113.685 61.56C113.685 61.5618 113.685 61.5636 113.685 61.5653C113.685 61.5671 113.685 61.5689 113.685 61.5706C113.685 61.5724 113.685 61.5742 113.685 61.5759C113.685 61.5777 113.685 61.5795 113.685 61.5812C113.685 61.583 113.685 61.5848 113.685 61.5865C113.685 61.5883 113.685 61.59 113.685 61.5918C113.685 61.5936 113.685 61.5953 113.685 61.5971C113.685 61.5988 113.685 61.6006 113.685 61.6023C113.685 61.6041 113.685 61.6058 113.685 61.6076C113.685 61.6093 113.685 61.6111 113.685 61.6128C113.685 61.6146 113.685 61.6163 113.685 61.6181C113.685 61.6198 113.685 61.6215 113.685 61.6233C113.685 61.625 113.685 61.6268 113.685 61.6285C113.685 61.6302 113.685 61.632 113.685 61.6337C113.685 61.6354 113.685 61.6372 113.685 61.6389C113.685 61.6406 113.685 61.6424 113.685 61.6441C113.685 61.6458 113.685 61.6476 113.685 61.6493C113.685 61.651 113.685 61.6527 113.685 61.6545C113.685 61.6562 113.685 61.6579 113.685 61.6596C113.685 61.6614 113.685 61.6631 113.685 61.6648C113.685 61.6665 113.685 61.6682 113.685 61.67C113.685 61.6717 113.685 61.6734 113.685 61.6751C113.685 61.6768 113.685 61.6785 113.685 61.6802C113.685 61.6819 113.685 61.6837 113.685 61.6854C113.685 61.6871 113.685 61.6888 113.685 61.6905C113.685 61.6922 113.685 61.6939 113.685 61.6956C113.685 61.6973 113.685 61.699 113.685 61.7007C113.685 61.7024 113.685 61.7041 113.685 61.7058C113.685 61.7075 113.685 61.7092 113.685 61.7109C113.685 61.7126 113.685 61.7143 113.685 61.716C113.685 61.7177 113.685 61.7193 113.685 61.721C113.685 61.7227 113.685 61.7244 113.685 61.7261C113.685 61.7278 113.685 61.7295 113.685 61.7312C113.685 61.7328 113.685 61.7345 113.685 61.7362C113.685 61.7379 113.685 61.7396 113.685 61.7412C113.685 61.7429 113.685 61.7446 113.685 61.7463C113.685 61.7479 113.685 61.7496 113.685 61.7513C113.685 61.753 113.685 61.7546 113.685 61.7563C113.685 61.758 113.685 61.7596 113.685 61.7613C113.685 61.763 113.685 61.7646 113.685 61.7663C113.685 61.768 113.685 61.7696 113.685 61.7713C113.685 61.773 113.685 61.7746 113.685 61.7763C113.685 61.7779 113.685 61.7796 113.685 61.7813C113.685 61.7829 113.685 61.7846 113.685 61.7862C113.685 61.7879 113.685 61.7895 113.685 61.7912C113.685 61.7928 113.685 61.7945 113.685 61.7961C113.685 61.7978 113.685 61.7994 113.685 61.8011C113.685 61.8027 113.685 61.8044 113.685 61.806C113.685 61.8076 113.685 61.8093 113.685 61.8109C113.685 61.8126 113.685 61.8142 113.685 61.8158C113.685 61.8175 113.685 61.8191 113.685 61.8208C113.685 61.8224 113.685 61.824 113.685 61.8257C113.685 61.8273 113.685 61.8289 113.685 61.8305C113.685 61.8322 113.685 61.8338 113.685 61.8354C113.685 61.8371 113.685 61.8387 113.685 61.8403C113.685 61.8419 113.685 61.8436 113.685 61.8452C113.685 61.8468 113.685 61.8484 113.685 61.85C113.685 61.8517 113.685 61.8533 113.685 61.8549C113.685 61.8565 113.685 61.8581 113.685 61.8597C113.685 61.8613 113.685 61.863 113.685 61.8646C113.685 61.8662 113.685 61.8678 113.685 61.8694C113.685 61.871 113.685 61.8726 113.685 61.8742C113.685 61.8758 113.685 61.8774 113.685 61.879C113.685 61.8806 113.685 61.8822 113.685 61.8838C113.685 61.8854 113.685 61.887 113.685 61.8886C113.685 61.8902 113.685 61.8918 113.685 61.8934C113.685 61.895 113.685 61.8966 113.685 61.8982C113.685 61.8998 113.685 61.9014 113.685 61.903C113.685 61.9045 113.685 61.9061 113.685 61.9077C113.685 61.9093 113.685 61.9109 113.685 61.9125C113.685 61.9141 113.685 61.9156 113.685 61.9172C113.685 61.9188 113.685 61.9204 113.685 61.922C113.685 61.9235 113.685 61.9251 113.685 61.9267C113.685 61.9283 113.685 61.9298 113.685 61.9314C113.685 61.933 113.685 61.9345 113.685 61.9361C113.685 61.9377 113.685 61.9393 113.685 61.9408C113.685 61.9424 113.685 61.944 113.685 61.9455C113.685 61.9471 113.685 61.9486 113.685 61.9502C113.685 61.9518 113.685 61.9533 113.685 61.9549C113.685 61.9564 113.685 61.958 113.685 61.9596C113.685 61.9611 113.685 61.9627 113.685 61.9642C113.685 61.9658 113.685 61.9673 113.685 61.9689C113.685 61.9704 113.685 61.972 113.685 61.9735C113.685 61.9751 113.685 61.9766 113.685 61.9782C113.685 61.9797 113.685 61.9813 113.685 61.9828C113.685 61.9843 113.685 61.9859 113.685 61.9874C113.685 61.989 113.685 61.9905 113.685 61.992C113.685 61.9936 113.685 61.9951 113.685 61.9966C113.685 61.9982 113.685 61.9997 113.685 62.0012C113.685 62.0028 113.685 62.0043 113.685 62.0058C113.685 62.0074 113.685 62.0089 113.685 62.0104C113.685 62.0119 113.685 62.0135 113.685 62.015C113.685 62.0165 113.685 62.018 113.685 62.0196C113.685 62.0211 113.685 62.0226 113.685 62.0241C113.685 62.0256 113.685 62.0271 113.685 62.0287C113.685 62.0302 113.685 62.0317 113.685 62.0332C113.685 62.0347 113.685 62.0362 113.685 62.0377C113.685 62.0392 113.685 62.0408 113.685 62.0423C113.685 62.0438 113.685 62.0453 113.685 62.0468C113.685 62.0483 113.685 62.0498 113.685 62.0513C113.685 62.0528 113.685 62.0543 113.685 62.0558C113.685 62.0573 113.685 62.0588 113.685 62.0603C113.685 62.0618 113.685 62.0633 113.685 62.0648C113.685 62.0663 113.685 62.0678 113.685 62.0692C113.685 62.0707 113.685 62.0722 113.685 62.0737C113.685 62.0752 113.685 62.0767 113.685 62.0782C113.685 62.0797 113.685 62.0811 113.685 62.0826C113.685 62.0841 113.685 62.0856 113.685 62.0871C113.685 62.0885 113.685 62.09 113.685 62.0915C113.685 62.093 113.685 62.0945 113.685 62.0959C113.685 62.0974 113.685 62.0989 113.685 62.1003C113.685 62.1018 113.685 62.1033 113.685 62.1048C113.685 62.1062 113.685 62.1077 113.685 62.1092C113.685 62.1106 113.685 62.1121 113.685 62.1136C113.685 62.115 113.685 62.1165 113.685 62.1179C113.685 62.1194 113.685 62.1209 113.685 62.1223C113.685 62.1238 113.685 62.1252 113.685 62.1267C113.685 62.1281 113.685 62.1296 113.685 62.1311C113.685 62.1325 113.685 62.134 113.685 62.1354C113.685 62.1369 113.685 62.1383 113.685 62.1398C113.685 62.1412 113.685 62.1426 113.685 62.1441C113.685 62.1455 113.685 62.147 113.685 62.1484C113.685 62.1499 113.685 62.1513 113.685 62.1527C113.685 62.1542 113.685 62.1556 113.685 62.1571C113.685 62.1585 113.685 62.1599 113.685 62.1614C113.685 62.1628 113.685 62.1642 113.685 62.1657C113.685 62.1671 113.685 62.1685 113.685 62.1699C113.685 62.1714 113.685 62.1728 113.685 62.1742C113.685 62.1757 113.685 62.1771 113.685 62.1785C113.685 62.1799 113.685 62.1813 113.685 62.1828C113.685 62.1842 113.685 62.1856 113.685 62.187C113.685 62.1884 113.685 62.1899 113.685 62.1913C113.685 62.1927 113.685 62.1941 113.685 62.1955C113.685 62.1969 113.685 62.1983 113.685 62.1997C113.685 62.2012 113.685 62.2026 113.685 62.204C113.685 62.2054 113.685 62.2068 113.685 62.2082C113.685 62.2096 113.685 62.211 113.685 62.2124C113.685 62.2138 113.685 62.2152 113.685 62.2166C113.685 62.218 113.685 62.2194 113.685 62.2208C113.685 62.2222 113.685 62.2236 113.685 62.225C113.685 62.2264 113.685 62.2277 113.685 62.2291C113.685 62.2305 113.685 62.2319 113.685 62.2333C113.685 62.2347 113.685 62.2361 113.685 62.2375C113.685 62.2388 113.685 62.2402 113.685 62.2416C113.685 62.243 113.685 62.2444 113.685 62.2458C113.685 62.2471 113.685 62.2485 113.685 62.2499C113.685 62.2513 113.685 62.2526 113.685 62.254C113.685 62.2554 113.685 62.2568 113.685 62.2581C113.685 62.2595 113.685 62.2609 113.685 62.2622C113.685 62.2636 113.685 62.265 113.685 62.2663C113.685 62.2677 113.685 62.2691 113.685 62.2704C113.685 62.2718 113.685 62.2732 113.685 62.2745C113.685 62.2759 113.685 62.2772 113.685 62.2786C113.685 62.28 113.685 62.2813 113.685 62.2827C113.685 62.284 113.685 62.2854 113.685 62.2867C113.685 62.2881 113.685 62.2894 113.685 62.2908C113.685 62.2921 113.685 62.2935 113.685 62.2948C113.685 62.2962 113.685 62.2975 113.685 62.2989C113.685 62.3002 113.685 62.3015 113.685 62.3029C113.685 62.3042 113.685 62.3056 113.685 62.3069C113.685 62.3082 113.685 62.3096 113.685 62.3109C113.685 62.3123 113.685 62.3136 113.685 62.3149C113.685 62.3163 113.685 62.3176 113.685 62.3189C113.685 62.3202 113.685 62.3216 113.685 62.3229C113.685 62.3242 113.685 62.3256 113.685 62.3269C113.685 62.3282 113.685 62.3295 113.685 62.3309C113.685 62.3322 113.685 62.3335 113.685 62.3348C113.685 62.3361 113.685 62.3375 113.685 62.3388C113.685 62.3401 113.685 62.3414 113.685 62.3427C113.685 62.344 113.685 62.3453 113.685 62.3467C113.685 62.348 113.685 62.3493 113.685 62.3506C113.685 62.3519 113.685 62.3532 113.685 62.3545C113.685 62.3558 113.685 62.3571 113.685 62.3584C113.685 62.3597 113.685 62.361 113.685 62.3623C113.685 62.3636 113.685 62.3649 113.685 62.3662C113.685 62.3675 113.685 62.3688 113.685 62.3701C113.685 62.3714 113.685 62.3727 113.685 62.374C113.685 62.3753 113.685 62.3766 113.685 62.3779C113.685 62.3792 113.685 62.3804 113.685 62.3817C113.685 62.383 113.685 62.3843 113.685 62.3856C113.685 62.3869 113.685 62.3882 113.685 62.3894C113.685 62.3907 113.685 62.392 113.685 62.3933C113.685 62.3946 113.685 62.3958 113.685 62.3971C113.685 62.3984 113.685 62.3997 113.685 62.4009C113.685 62.4022 113.685 62.4035 113.685 62.4047C113.685 62.406 113.685 62.4073 113.685 62.4086C113.685 62.4098 113.685 62.4111 113.685 62.4124C113.685 62.4136 113.685 62.4149 113.685 62.4161C113.685 62.4174 113.685 62.4187 113.685 62.4199C113.685 62.4212 113.685 62.4224 113.685 62.4237C113.685 62.425 113.685 62.4262 113.685 62.4275C113.685 62.4287 113.685 62.43 113.685 62.4312C113.685 62.4325 113.685 62.4337 113.685 62.435C113.685 62.4362 113.685 62.4375 113.685 62.4387C113.685 62.44 113.685 62.4412 113.685 62.4425C113.685 62.4437 113.685 62.4449 113.685 62.4462C113.685 62.4474 113.685 62.4487 113.685 62.4499C113.685 62.4511 113.685 62.4524 113.685 62.4536C113.685 62.4548 113.685 62.4561 113.685 62.4573C113.685 62.4585 113.685 62.4598 113.685 62.461C113.685 62.4622 113.685 62.4635 113.685 62.4647C113.685 62.4659 113.685 62.4671 113.685 62.4684C113.685 62.4696 113.685 62.4708 113.685 62.472C113.685 62.4733 113.685 62.4745 113.685 62.4757C113.685 62.4769 113.685 62.4781 113.685 62.4794C113.685 62.4806 113.685 62.4818 113.685 62.483C113.685 62.4842 113.685 62.4854 113.685 62.4866C113.685 62.4878 113.685 62.4891 113.685 62.4903C113.685 62.4915 113.685 62.4927 113.685 62.4939C113.685 62.4951 113.685 62.4963 113.685 62.4975C113.685 62.4987 113.685 62.4999 113.685 62.5011C113.685 62.5023 113.685 62.5035 113.685 62.5047C113.685 62.5059 113.685 62.5071 113.685 62.5083C113.685 62.5095 113.685 62.5107 113.685 62.5119C113.685 62.5131 113.685 62.5142 113.685 62.5154C113.685 62.5166 113.685 62.5178 113.685 62.519C113.685 62.5202 113.685 62.5214 113.685 62.5226C113.685 62.5237 113.685 62.5249 113.685 62.5261C113.685 62.5273 113.685 62.5285 113.685 62.5296C113.685 62.5308 113.685 62.532 113.685 62.5332C113.685 62.5343 113.685 62.5355 113.685 62.5367C113.685 62.5379 113.685 62.539 113.685 62.5402C113.685 62.5414 113.685 62.5425 113.685 62.5437C113.685 62.5449 113.685 62.546 113.685 62.5472C113.685 62.5484 113.685 62.5495 113.685 62.5507C113.685 62.5519 113.685 62.553 113.685 62.5542C113.685 62.5553 113.685 62.5565 113.685 62.5577C113.685 62.5588 113.685 62.56 113.685 62.5611C113.685 62.5623 113.685 62.5634 113.685 62.5646C113.685 62.5657 113.685 62.5669 113.685 62.568C113.685 62.5692 113.685 62.5703 113.685 62.5715C113.685 62.5726 113.685 62.5738 113.685 62.5749C113.685 62.576 113.685 62.5772 113.685 62.5783C113.685 62.5795 113.685 62.5806 113.685 62.5817C113.685 62.5829 113.685 62.584 113.685 62.5851C113.685 62.5863 113.685 62.5874 113.685 62.5885C113.685 62.5897 113.685 62.5908 113.685 62.5919C113.685 62.5931 113.685 62.5942 113.685 62.5953C113.685 62.5964 113.685 62.5976 113.685 62.5987C113.685 62.5998 113.685 62.6009 113.685 62.6021C113.685 62.6032 113.685 62.6043 113.685 62.6054C113.685 62.6065 113.685 62.6077 113.685 62.6088C113.685 62.6099 113.685 62.611 113.685 62.6121C113.685 62.6132 113.685 62.6143 113.685 62.6155C113.685 62.6166 113.685 62.6177 113.685 62.6188C113.685 62.6199 113.685 62.621 113.685 62.6221C113.685 62.6232 113.685 62.6243 113.685 62.6254C113.685 62.6265 113.685 62.6276 113.685 62.6287C113.685 62.6298 113.685 62.6309 113.685 62.632C113.685 62.6331 113.685 62.6342 113.685 62.6353C113.685 62.6364 113.685 62.6375 113.685 62.6386C113.685 62.6397 113.685 62.6407 113.685 62.6418C113.685 62.6429 113.685 62.644 113.685 62.6451C113.685 62.6462 113.685 62.6473 113.685 62.6483C113.685 62.6494 113.685 62.6505 113.685 62.6516C113.685 62.6527 113.685 62.6538 113.685 62.6548C113.685 62.6559 113.685 62.657 113.685 62.6581C113.685 62.6591 113.685 62.6602 113.685 62.6613C113.685 62.6624 113.685 62.6634 113.685 62.6645C113.685 62.6656 113.685 62.6666 113.685 62.6677C113.685 62.6688 113.685 62.6698 113.685 62.6709C113.685 62.672 113.685 62.673 113.685 62.6741C113.685 62.6751 113.685 62.6762 113.685 62.6773C113.685 62.6783 113.685 62.6794 113.685 62.6804C113.685 62.6815 113.685 62.6825 113.685 62.6836C113.685 62.6846 113.685 62.6857 113.685 62.6868C113.685 62.6878 113.685 62.6889 113.685 62.6899C113.685 62.6909 113.685 62.692 113.685 62.693C113.685 62.6941 113.685 62.6951 113.685 62.6962C113.685 62.6972 113.685 62.6983 113.685 62.6993C113.685 62.7003 113.685 62.7014 113.685 62.7024C113.685 62.7034 113.685 62.7045 113.685 62.7055C113.685 62.7065 113.685 62.7076 113.685 62.7086C113.685 62.7096 113.685 62.7107 113.685 62.7117C113.685 62.7127 113.685 62.7138 113.685 62.7148C113.685 62.7158 113.685 62.7168 113.685 62.7179C113.685 62.7189 113.685 62.7199 113.685 62.7209C113.685 62.7219 113.685 62.723 113.685 62.724C113.685 62.725 113.685 62.726 113.685 62.727C113.685 62.728 113.685 62.7291 113.685 62.7301C113.685 62.7311 113.685 62.7321 113.685 62.7331C113.685 62.7341 113.685 62.7351 113.685 62.7361C113.685 62.7371 113.685 62.7381 113.685 62.7391C113.685 62.7401 113.685 62.7412 113.685 62.7422C113.685 62.7432 113.685 62.7442 113.685 62.7452C113.685 62.7462 113.685 62.7472 113.685 62.7481C113.685 62.7491 113.685 62.7501 113.685 62.7511C113.685 62.7521 113.685 62.7531 113.685 62.7541C113.685 62.7551 113.685 62.7561 113.685 62.7571C113.685 62.7581 113.685 62.759 113.685 62.76C113.685 62.761 113.685 62.762 113.685 62.763C113.685 62.764 113.685 62.7649 113.685 62.7659C113.685 62.7669 113.685 62.7679 113.685 62.7689C113.685 62.7698 113.685 62.7708 113.685 62.7718C113.685 62.7728 113.685 62.7737 113.685 62.7747C113.685 62.7757 113.685 62.7767 113.685 62.7776C113.685 62.7786 113.685 62.7796 113.685 62.7805C113.685 62.7815 113.685 62.7825 113.685 62.7834C113.685 62.7844 113.685 62.7853 113.685 62.7863C113.685 62.7873 113.685 62.7882 113.685 62.7892C113.685 62.7901 113.685 62.7911 113.685 62.7921C113.685 62.793 113.685 62.794 113.685 62.7949C113.685 62.7959 113.685 62.7968 113.685 62.7978C113.685 62.7987 113.685 62.7997 113.685 62.8006C113.685 62.8016 113.685 62.8025 113.685 62.8035C113.685 62.8044 113.685 62.8053 113.685 62.8063C113.685 62.8072 113.685 62.8082 113.685 62.8091C113.685 62.81 113.685 62.811 113.685 62.8119C113.685 62.8128 113.685 62.8138 113.685 62.8147C113.685 62.8157 113.685 62.8166 113.685 62.8175C113.685 62.8184 113.685 62.8194 113.685 62.8203C113.685 62.8212 113.685 62.8222 113.685 62.8231C113.685 62.824 113.685 62.8249 113.685 62.8259C113.685 62.8268 113.685 62.8277 113.685 62.8286C113.685 62.8295 113.685 62.8305 113.685 62.8314C113.685 62.8323 113.685 62.8332 113.685 62.8341C113.685 62.835 113.685 62.836 113.685 62.8369C113.685 62.8378 113.685 62.8387 113.685 62.8396C113.685 62.8405 113.685 62.8414 113.685 62.8423C113.685 62.8432 113.685 62.8441 113.685 62.845C113.685 62.8459 113.685 62.8468 113.685 62.8477C113.685 62.8486 113.685 62.8495 113.685 62.8504C113.685 62.8513 113.685 62.8522 113.685 62.8531C113.685 62.854 113.685 62.8549 113.685 62.8558C113.685 62.8567 113.685 62.8576 113.685 62.8585C113.685 62.8594 113.685 62.8603 113.685 62.8612C113.685 62.862 113.685 62.8629 113.685 62.8638C113.685 62.8647 113.685 62.8656 113.685 62.8665C113.685 62.8673 113.685 62.8682 113.685 62.8691C113.685 62.87 113.685 62.8709 113.685 62.8717C113.685 62.8726 113.685 62.8735 113.685 62.8744C113.685 62.8752 113.685 62.8761 113.685 62.877C113.685 62.8778 113.685 62.8787 113.685 62.8796C113.685 62.8805 113.685 62.8813 113.685 62.8822C113.685 62.8831 113.685 62.8839 113.685 62.8848C113.685 62.8856 113.685 62.8865 113.685 62.8874C113.685 62.8882 113.685 62.8891 113.685 62.8899C113.685 62.8908 113.685 62.8917 113.685 62.8925C113.685 62.8934 113.685 62.8942 113.685 62.8951C113.685 62.8959 113.685 62.8968 113.685 62.8976C113.685 62.8985 113.685 62.8993 113.685 62.9002C113.685 62.901 113.685 62.9019 113.685 62.9027C113.685 62.9035 113.685 62.9044 113.685 62.9052C113.685 62.9061 113.685 62.9069 113.685 62.9077C113.685 62.9086 113.685 62.9094 113.685 62.9103C113.685 62.9111 113.685 62.9119 113.685 62.9128C113.685 62.9136 113.685 62.9144 113.685 62.9153C113.685 62.9161 113.685 62.9169 113.685 62.9177C113.685 62.9186 113.685 62.9194 113.685 62.9202C113.685 62.921 113.685 62.9219 113.685 62.9227C113.685 62.9235 113.685 62.9243 113.685 62.9252C113.685 62.926 113.685 62.9268 113.685 62.9276C113.685 62.9284 113.685 62.9292 113.685 62.9301C113.685 62.9309 113.685 62.9317 113.685 62.9325C113.685 62.9333 113.685 62.9341 113.685 62.9349C113.685 62.9357 113.685 62.9365 113.685 62.9373C113.685 62.9381 113.685 62.939 113.685 62.9398C113.685 62.9406 113.685 62.9414 113.685 62.9422C113.685 62.943 113.685 62.9438 113.685 62.9446C113.685 62.9454 113.685 62.9461 113.685 62.9469C113.685 62.9477 113.685 62.9485 113.685 62.9493C113.685 62.9501 113.685 62.9509 113.685 62.9517C113.685 62.9525 113.685 62.9533 113.685 62.9541C113.685 62.9548 113.685 62.9556 113.685 62.9564C113.685 62.9572 113.685 62.958 113.685 62.9588C113.685 62.9595 113.685 62.9603 113.685 62.9611C113.685 62.9619 113.685 62.9627 113.685 62.9634C113.685 62.9642 113.685 62.965 113.685 62.9658H114.685C114.685 62.965 114.685 62.9642 114.685 62.9634C114.685 62.9627 114.685 62.9619 114.685 62.9611C114.685 62.9603 114.685 62.9595 114.685 62.9588C114.685 62.958 114.685 62.9572 114.685 62.9564C114.685 62.9556 114.685 62.9548 114.685 62.9541C114.685 62.9533 114.685 62.9525 114.685 62.9517C114.685 62.9509 114.685 62.9501 114.685 62.9493C114.685 62.9485 114.685 62.9477 114.685 62.9469C114.685 62.9461 114.685 62.9454 114.685 62.9446C114.685 62.9438 114.685 62.943 114.685 62.9422C114.685 62.9414 114.685 62.9406 114.685 62.9398C114.685 62.939 114.685 62.9381 114.685 62.9373C114.685 62.9365 114.685 62.9357 114.685 62.9349C114.685 62.9341 114.685 62.9333 114.685 62.9325C114.685 62.9317 114.685 62.9309 114.685 62.9301C114.685 62.9292 114.685 62.9284 114.685 62.9276C114.685 62.9268 114.685 62.926 114.685 62.9252C114.685 62.9243 114.685 62.9235 114.685 62.9227C114.685 62.9219 114.685 62.921 114.685 62.9202C114.685 62.9194 114.685 62.9186 114.685 62.9177C114.685 62.9169 114.685 62.9161 114.685 62.9153C114.685 62.9144 114.685 62.9136 114.685 62.9128C114.685 62.9119 114.685 62.9111 114.685 62.9103C114.685 62.9094 114.685 62.9086 114.685 62.9077C114.685 62.9069 114.685 62.9061 114.685 62.9052C114.685 62.9044 114.685 62.9035 114.685 62.9027C114.685 62.9019 114.685 62.901 114.685 62.9002C114.685 62.8993 114.685 62.8985 114.685 62.8976C114.685 62.8968 114.685 62.8959 114.685 62.8951C114.685 62.8942 114.685 62.8934 114.685 62.8925C114.685 62.8917 114.685 62.8908 114.685 62.8899C114.685 62.8891 114.685 62.8882 114.685 62.8874C114.685 62.8865 114.685 62.8856 114.685 62.8848C114.685 62.8839 114.685 62.8831 114.685 62.8822C114.685 62.8813 114.685 62.8805 114.685 62.8796C114.685 62.8787 114.685 62.8778 114.685 62.877C114.685 62.8761 114.685 62.8752 114.685 62.8744C114.685 62.8735 114.685 62.8726 114.685 62.8717C114.685 62.8709 114.685 62.87 114.685 62.8691C114.685 62.8682 114.685 62.8673 114.685 62.8665C114.685 62.8656 114.685 62.8647 114.685 62.8638C114.685 62.8629 114.685 62.862 114.685 62.8612C114.685 62.8603 114.685 62.8594 114.685 62.8585C114.685 62.8576 114.685 62.8567 114.685 62.8558C114.685 62.8549 114.685 62.854 114.685 62.8531C114.685 62.8522 114.685 62.8513 114.685 62.8504C114.685 62.8495 114.685 62.8486 114.685 62.8477C114.685 62.8468 114.685 62.8459 114.685 62.845C114.685 62.8441 114.685 62.8432 114.685 62.8423C114.685 62.8414 114.685 62.8405 114.685 62.8396C114.685 62.8387 114.685 62.8378 114.685 62.8369C114.685 62.836 114.685 62.835 114.685 62.8341C114.685 62.8332 114.685 62.8323 114.685 62.8314C114.685 62.8305 114.685 62.8295 114.685 62.8286C114.685 62.8277 114.685 62.8268 114.685 62.8259C114.685 62.8249 114.685 62.824 114.685 62.8231C114.685 62.8222 114.685 62.8212 114.685 62.8203C114.685 62.8194 114.685 62.8184 114.685 62.8175C114.685 62.8166 114.685 62.8157 114.685 62.8147C114.685 62.8138 114.685 62.8128 114.685 62.8119C114.685 62.811 114.685 62.81 114.685 62.8091C114.685 62.8082 114.685 62.8072 114.685 62.8063C114.685 62.8053 114.685 62.8044 114.685 62.8035C114.685 62.8025 114.685 62.8016 114.685 62.8006C114.685 62.7997 114.685 62.7987 114.685 62.7978C114.685 62.7968 114.685 62.7959 114.685 62.7949C114.685 62.794 114.685 62.793 114.685 62.7921C114.685 62.7911 114.685 62.7901 114.685 62.7892C114.685 62.7882 114.685 62.7873 114.685 62.7863C114.685 62.7853 114.685 62.7844 114.685 62.7834C114.685 62.7825 114.685 62.7815 114.685 62.7805C114.685 62.7796 114.685 62.7786 114.685 62.7776C114.685 62.7767 114.685 62.7757 114.685 62.7747C114.685 62.7737 114.685 62.7728 114.685 62.7718C114.685 62.7708 114.685 62.7698 114.685 62.7689C114.685 62.7679 114.685 62.7669 114.685 62.7659C114.685 62.7649 114.685 62.764 114.685 62.763C114.685 62.762 114.685 62.761 114.685 62.76C114.685 62.759 114.685 62.7581 114.685 62.7571C114.685 62.7561 114.685 62.7551 114.685 62.7541C114.685 62.7531 114.685 62.7521 114.685 62.7511C114.685 62.7501 114.685 62.7491 114.685 62.7481C114.685 62.7472 114.685 62.7462 114.685 62.7452C114.685 62.7442 114.685 62.7432 114.685 62.7422C114.685 62.7412 114.685 62.7401 114.685 62.7391C114.685 62.7381 114.685 62.7371 114.685 62.7361C114.685 62.7351 114.685 62.7341 114.685 62.7331C114.685 62.7321 114.685 62.7311 114.685 62.7301C114.685 62.7291 114.685 62.728 114.685 62.727C114.685 62.726 114.685 62.725 114.685 62.724C114.685 62.723 114.685 62.7219 114.685 62.7209C114.685 62.7199 114.685 62.7189 114.685 62.7179C114.685 62.7168 114.685 62.7158 114.685 62.7148C114.685 62.7138 114.685 62.7127 114.685 62.7117C114.685 62.7107 114.685 62.7096 114.685 62.7086C114.685 62.7076 114.685 62.7065 114.685 62.7055C114.685 62.7045 114.685 62.7034 114.685 62.7024C114.685 62.7014 114.685 62.7003 114.685 62.6993C114.685 62.6983 114.685 62.6972 114.685 62.6962C114.685 62.6951 114.685 62.6941 114.685 62.693C114.685 62.692 114.685 62.6909 114.685 62.6899C114.685 62.6889 114.685 62.6878 114.685 62.6868C114.685 62.6857 114.685 62.6846 114.685 62.6836C114.685 62.6825 114.685 62.6815 114.685 62.6804C114.685 62.6794 114.685 62.6783 114.685 62.6773C114.685 62.6762 114.685 62.6751 114.685 62.6741C114.685 62.673 114.685 62.672 114.685 62.6709C114.685 62.6698 114.685 62.6688 114.685 62.6677C114.685 62.6666 114.685 62.6656 114.685 62.6645C114.685 62.6634 114.685 62.6624 114.685 62.6613C114.685 62.6602 114.685 62.6591 114.685 62.6581C114.685 62.657 114.685 62.6559 114.685 62.6548C114.685 62.6538 114.685 62.6527 114.685 62.6516C114.685 62.6505 114.685 62.6494 114.685 62.6483C114.685 62.6473 114.685 62.6462 114.685 62.6451C114.685 62.644 114.685 62.6429 114.685 62.6418C114.685 62.6407 114.685 62.6397 114.685 62.6386C114.685 62.6375 114.685 62.6364 114.685 62.6353C114.685 62.6342 114.685 62.6331 114.685 62.632C114.685 62.6309 114.685 62.6298 114.685 62.6287C114.685 62.6276 114.685 62.6265 114.685 62.6254C114.685 62.6243 114.685 62.6232 114.685 62.6221C114.685 62.621 114.685 62.6199 114.685 62.6188C114.685 62.6177 114.685 62.6166 114.685 62.6155C114.685 62.6143 114.685 62.6132 114.685 62.6121C114.685 62.611 114.685 62.6099 114.685 62.6088C114.685 62.6077 114.685 62.6065 114.685 62.6054C114.685 62.6043 114.685 62.6032 114.685 62.6021C114.685 62.6009 114.685 62.5998 114.685 62.5987C114.685 62.5976 114.685 62.5964 114.685 62.5953C114.685 62.5942 114.685 62.5931 114.685 62.5919C114.685 62.5908 114.685 62.5897 114.685 62.5885C114.685 62.5874 114.685 62.5863 114.685 62.5851C114.685 62.584 114.685 62.5829 114.685 62.5817C114.685 62.5806 114.685 62.5795 114.685 62.5783C114.685 62.5772 114.685 62.576 114.685 62.5749C114.685 62.5738 114.685 62.5726 114.685 62.5715C114.685 62.5703 114.685 62.5692 114.685 62.568C114.685 62.5669 114.685 62.5657 114.685 62.5646C114.685 62.5634 114.685 62.5623 114.685 62.5611C114.685 62.56 114.685 62.5588 114.685 62.5577C114.685 62.5565 114.685 62.5553 114.685 62.5542C114.685 62.553 114.685 62.5519 114.685 62.5507C114.685 62.5495 114.685 62.5484 114.685 62.5472C114.685 62.546 114.685 62.5449 114.685 62.5437C114.685 62.5425 114.685 62.5414 114.685 62.5402C114.685 62.539 114.685 62.5379 114.685 62.5367C114.685 62.5355 114.685 62.5343 114.685 62.5332C114.685 62.532 114.685 62.5308 114.685 62.5296C114.685 62.5285 114.685 62.5273 114.685 62.5261C114.685 62.5249 114.685 62.5237 114.685 62.5226C114.685 62.5214 114.685 62.5202 114.685 62.519C114.685 62.5178 114.685 62.5166 114.685 62.5154C114.685 62.5142 114.685 62.5131 114.685 62.5119C114.685 62.5107 114.685 62.5095 114.685 62.5083C114.685 62.5071 114.685 62.5059 114.685 62.5047C114.685 62.5035 114.685 62.5023 114.685 62.5011C114.685 62.4999 114.685 62.4987 114.685 62.4975C114.685 62.4963 114.685 62.4951 114.685 62.4939C114.685 62.4927 114.685 62.4915 114.685 62.4903C114.685 62.4891 114.685 62.4878 114.685 62.4866C114.685 62.4854 114.685 62.4842 114.685 62.483C114.685 62.4818 114.685 62.4806 114.685 62.4794C114.685 62.4781 114.685 62.4769 114.685 62.4757C114.685 62.4745 114.685 62.4733 114.685 62.472C114.685 62.4708 114.685 62.4696 114.685 62.4684C114.685 62.4671 114.685 62.4659 114.685 62.4647C114.685 62.4635 114.685 62.4622 114.685 62.461C114.685 62.4598 114.685 62.4585 114.685 62.4573C114.685 62.4561 114.685 62.4548 114.685 62.4536C114.685 62.4524 114.685 62.4511 114.685 62.4499C114.685 62.4487 114.685 62.4474 114.685 62.4462C114.685 62.4449 114.685 62.4437 114.685 62.4425C114.685 62.4412 114.685 62.44 114.685 62.4387C114.685 62.4375 114.685 62.4362 114.685 62.435C114.685 62.4337 114.685 62.4325 114.685 62.4312C114.685 62.43 114.685 62.4287 114.685 62.4275C114.685 62.4262 114.685 62.425 114.685 62.4237C114.685 62.4224 114.685 62.4212 114.685 62.4199C114.685 62.4187 114.685 62.4174 114.685 62.4161C114.685 62.4149 114.685 62.4136 114.685 62.4124C114.685 62.4111 114.685 62.4098 114.685 62.4086C114.685 62.4073 114.685 62.406 114.685 62.4047C114.685 62.4035 114.685 62.4022 114.685 62.4009C114.685 62.3997 114.685 62.3984 114.685 62.3971C114.685 62.3958 114.685 62.3946 114.685 62.3933C114.685 62.392 114.685 62.3907 114.685 62.3894C114.685 62.3882 114.685 62.3869 114.685 62.3856C114.685 62.3843 114.685 62.383 114.685 62.3817C114.685 62.3804 114.685 62.3792 114.685 62.3779C114.685 62.3766 114.685 62.3753 114.685 62.374C114.685 62.3727 114.685 62.3714 114.685 62.3701C114.685 62.3688 114.685 62.3675 114.685 62.3662C114.685 62.3649 114.685 62.3636 114.685 62.3623C114.685 62.361 114.685 62.3597 114.685 62.3584C114.685 62.3571 114.685 62.3558 114.685 62.3545C114.685 62.3532 114.685 62.3519 114.685 62.3506C114.685 62.3493 114.685 62.348 114.685 62.3467C114.685 62.3453 114.685 62.344 114.685 62.3427C114.685 62.3414 114.685 62.3401 114.685 62.3388C114.685 62.3375 114.685 62.3361 114.685 62.3348C114.685 62.3335 114.685 62.3322 114.685 62.3309C114.685 62.3295 114.685 62.3282 114.685 62.3269C114.685 62.3256 114.685 62.3242 114.685 62.3229C114.685 62.3216 114.685 62.3202 114.685 62.3189C114.685 62.3176 114.685 62.3163 114.685 62.3149C114.685 62.3136 114.685 62.3123 114.685 62.3109C114.685 62.3096 114.685 62.3082 114.685 62.3069C114.685 62.3056 114.685 62.3042 114.685 62.3029C114.685 62.3015 114.685 62.3002 114.685 62.2989C114.685 62.2975 114.685 62.2962 114.685 62.2948C114.685 62.2935 114.685 62.2921 114.685 62.2908C114.685 62.2894 114.685 62.2881 114.685 62.2867C114.685 62.2854 114.685 62.284 114.685 62.2827C114.685 62.2813 114.685 62.28 114.685 62.2786C114.685 62.2772 114.685 62.2759 114.685 62.2745C114.685 62.2732 114.685 62.2718 114.685 62.2704C114.685 62.2691 114.685 62.2677 114.685 62.2663C114.685 62.265 114.685 62.2636 114.685 62.2622C114.685 62.2609 114.685 62.2595 114.685 62.2581C114.685 62.2568 114.685 62.2554 114.685 62.254C114.685 62.2526 114.685 62.2513 114.685 62.2499C114.685 62.2485 114.685 62.2471 114.685 62.2458C114.685 62.2444 114.685 62.243 114.685 62.2416C114.685 62.2402 114.685 62.2388 114.685 62.2375C114.685 62.2361 114.685 62.2347 114.685 62.2333C114.685 62.2319 114.685 62.2305 114.685 62.2291C114.685 62.2277 114.685 62.2264 114.685 62.225C114.685 62.2236 114.685 62.2222 114.685 62.2208C114.685 62.2194 114.685 62.218 114.685 62.2166C114.685 62.2152 114.685 62.2138 114.685 62.2124C114.685 62.211 114.685 62.2096 114.685 62.2082C114.685 62.2068 114.685 62.2054 114.685 62.204C114.685 62.2026 114.685 62.2012 114.685 62.1997C114.685 62.1983 114.685 62.1969 114.685 62.1955C114.685 62.1941 114.685 62.1927 114.685 62.1913C114.685 62.1899 114.685 62.1884 114.685 62.187C114.685 62.1856 114.685 62.1842 114.685 62.1828C114.685 62.1813 114.685 62.1799 114.685 62.1785C114.685 62.1771 114.685 62.1757 114.685 62.1742C114.685 62.1728 114.685 62.1714 114.685 62.1699C114.685 62.1685 114.685 62.1671 114.685 62.1657C114.685 62.1642 114.685 62.1628 114.685 62.1614C114.685 62.1599 114.685 62.1585 114.685 62.1571C114.685 62.1556 114.685 62.1542 114.685 62.1527C114.685 62.1513 114.685 62.1499 114.685 62.1484C114.685 62.147 114.685 62.1455 114.685 62.1441C114.685 62.1426 114.685 62.1412 114.685 62.1398C114.685 62.1383 114.685 62.1369 114.685 62.1354C114.685 62.134 114.685 62.1325 114.685 62.1311C114.685 62.1296 114.685 62.1281 114.685 62.1267C114.685 62.1252 114.685 62.1238 114.685 62.1223C114.685 62.1209 114.685 62.1194 114.685 62.1179C114.685 62.1165 114.685 62.115 114.685 62.1136C114.685 62.1121 114.685 62.1106 114.685 62.1092C114.685 62.1077 114.685 62.1062 114.685 62.1048C114.685 62.1033 114.685 62.1018 114.685 62.1003C114.685 62.0989 114.685 62.0974 114.685 62.0959C114.685 62.0945 114.685 62.093 114.685 62.0915C114.685 62.09 114.685 62.0885 114.685 62.0871C114.685 62.0856 114.685 62.0841 114.685 62.0826C114.685 62.0811 114.685 62.0797 114.685 62.0782C114.685 62.0767 114.685 62.0752 114.685 62.0737C114.685 62.0722 114.685 62.0707 114.685 62.0692C114.685 62.0678 114.685 62.0663 114.685 62.0648C114.685 62.0633 114.685 62.0618 114.685 62.0603C114.685 62.0588 114.685 62.0573 114.685 62.0558C114.685 62.0543 114.685 62.0528 114.685 62.0513C114.685 62.0498 114.685 62.0483 114.685 62.0468C114.685 62.0453 114.685 62.0438 114.685 62.0423C114.685 62.0408 114.685 62.0392 114.685 62.0377C114.685 62.0362 114.685 62.0347 114.685 62.0332C114.685 62.0317 114.685 62.0302 114.685 62.0287C114.685 62.0271 114.685 62.0256 114.685 62.0241C114.685 62.0226 114.685 62.0211 114.685 62.0196C114.685 62.018 114.685 62.0165 114.685 62.015C114.685 62.0135 114.685 62.0119 114.685 62.0104C114.685 62.0089 114.685 62.0074 114.685 62.0058C114.685 62.0043 114.685 62.0028 114.685 62.0012C114.685 61.9997 114.685 61.9982 114.685 61.9966C114.685 61.9951 114.685 61.9936 114.685 61.992C114.685 61.9905 114.685 61.989 114.685 61.9874C114.685 61.9859 114.685 61.9843 114.685 61.9828C114.685 61.9813 114.685 61.9797 114.685 61.9782C114.685 61.9766 114.685 61.9751 114.685 61.9735C114.685 61.972 114.685 61.9704 114.685 61.9689C114.685 61.9673 114.685 61.9658 114.685 61.9642C114.685 61.9627 114.685 61.9611 114.685 61.9596C114.685 61.958 114.685 61.9564 114.685 61.9549C114.685 61.9533 114.685 61.9518 114.685 61.9502C114.685 61.9486 114.685 61.9471 114.685 61.9455C114.685 61.944 114.685 61.9424 114.685 61.9408C114.685 61.9393 114.685 61.9377 114.685 61.9361C114.685 61.9345 114.685 61.933 114.685 61.9314C114.685 61.9298 114.685 61.9283 114.685 61.9267C114.685 61.9251 114.685 61.9235 114.685 61.922C114.685 61.9204 114.685 61.9188 114.685 61.9172C114.685 61.9156 114.685 61.9141 114.685 61.9125C114.685 61.9109 114.685 61.9093 114.685 61.9077C114.685 61.9061 114.685 61.9045 114.685 61.903C114.685 61.9014 114.685 61.8998 114.685 61.8982C114.685 61.8966 114.685 61.895 114.685 61.8934C114.685 61.8918 114.685 61.8902 114.685 61.8886C114.685 61.887 114.685 61.8854 114.685 61.8838C114.685 61.8822 114.685 61.8806 114.685 61.879C114.685 61.8774 114.685 61.8758 114.685 61.8742C114.685 61.8726 114.685 61.871 114.685 61.8694C114.685 61.8678 114.685 61.8662 114.685 61.8646C114.685 61.863 114.685 61.8613 114.685 61.8597C114.685 61.8581 114.685 61.8565 114.685 61.8549C114.685 61.8533 114.685 61.8517 114.685 61.85C114.685 61.8484 114.685 61.8468 114.685 61.8452C114.685 61.8436 114.685 61.8419 114.685 61.8403C114.685 61.8387 114.685 61.8371 114.685 61.8354C114.685 61.8338 114.685 61.8322 114.685 61.8305C114.685 61.8289 114.685 61.8273 114.685 61.8257C114.685 61.824 114.685 61.8224 114.685 61.8208C114.685 61.8191 114.685 61.8175 114.685 61.8158C114.685 61.8142 114.685 61.8126 114.685 61.8109C114.685 61.8093 114.685 61.8076 114.685 61.806C114.685 61.8044 114.685 61.8027 114.685 61.8011C114.685 61.7994 114.685 61.7978 114.685 61.7961C114.685 61.7945 114.685 61.7928 114.685 61.7912C114.685 61.7895 114.685 61.7879 114.685 61.7862C114.685 61.7846 114.685 61.7829 114.685 61.7813C114.685 61.7796 114.685 61.7779 114.685 61.7763C114.685 61.7746 114.685 61.773 114.685 61.7713C114.685 61.7696 114.685 61.768 114.685 61.7663C114.685 61.7646 114.685 61.763 114.685 61.7613C114.685 61.7596 114.685 61.758 114.685 61.7563C114.685 61.7546 114.685 61.753 114.685 61.7513C114.685 61.7496 114.685 61.7479 114.685 61.7463C114.685 61.7446 114.685 61.7429 114.685 61.7412C114.685 61.7396 114.685 61.7379 114.685 61.7362C114.685 61.7345 114.685 61.7328 114.685 61.7312C114.685 61.7295 114.685 61.7278 114.685 61.7261C114.685 61.7244 114.685 61.7227 114.685 61.721C114.685 61.7193 114.685 61.7177 114.685 61.716C114.685 61.7143 114.685 61.7126 114.685 61.7109C114.685 61.7092 114.685 61.7075 114.685 61.7058C114.685 61.7041 114.685 61.7024 114.685 61.7007C114.685 61.699 114.685 61.6973 114.685 61.6956C114.685 61.6939 114.685 61.6922 114.685 61.6905C114.685 61.6888 114.685 61.6871 114.685 61.6854C114.685 61.6837 114.685 61.6819 114.685 61.6802C114.685 61.6785 114.685 61.6768 114.685 61.6751C114.685 61.6734 114.685 61.6717 114.685 61.67C114.685 61.6682 114.685 61.6665 114.685 61.6648C114.685 61.6631 114.685 61.6614 114.685 61.6596C114.685 61.6579 114.685 61.6562 114.685 61.6545C114.685 61.6527 114.685 61.651 114.685 61.6493C114.685 61.6476 114.685 61.6458 114.685 61.6441C114.685 61.6424 114.685 61.6406 114.685 61.6389C114.685 61.6372 114.685 61.6354 114.685 61.6337C114.685 61.632 114.685 61.6302 114.685 61.6285C114.685 61.6268 114.685 61.625 114.685 61.6233C114.685 61.6215 114.685 61.6198 114.685 61.6181C114.685 61.6163 114.685 61.6146 114.685 61.6128C114.685 61.6111 114.685 61.6093 114.685 61.6076C114.685 61.6058 114.685 61.6041 114.685 61.6023C114.685 61.6006 114.685 61.5988 114.685 61.5971C114.685 61.5953 114.685 61.5936 114.685 61.5918C114.685 61.59 114.685 61.5883 114.685 61.5865C114.685 61.5848 114.685 61.583 114.685 61.5812C114.685 61.5795 114.685 61.5777 114.685 61.5759C114.685 61.5742 114.685 61.5724 114.685 61.5706C114.685 61.5689 114.685 61.5671 114.685 61.5653C114.685 61.5636 114.685 61.5618 114.685 61.56C114.685 61.5582 114.685 61.5565 114.685 61.5547C114.685 61.5529 114.685 61.5511 114.685 61.5494C114.685 61.5476 114.685 61.5458 114.685 61.544C114.685 61.5422 114.685 61.5405 114.685 61.5387C114.685 61.5369 114.685 61.5351 114.685 61.5333C114.685 61.5315 114.685 61.5297 114.685 61.528C114.685 61.5262 114.685 61.5244 114.685 61.5226C114.685 61.5208 114.685 61.519 114.685 61.5172C114.685 61.5154 114.685 61.5136 114.685 61.5118C114.685 61.51 114.685 61.5082 114.685 61.5064C114.685 61.5046 114.685 61.5028 114.685 61.501C114.685 61.4992 114.685 61.4974 114.685 61.4956C114.685 61.4938 114.685 61.492 114.685 61.4902C114.685 61.4884 114.685 61.4865 114.685 61.4847C114.685 61.4829 114.685 61.4811 114.685 61.4793C114.685 61.4775 114.685 61.4757 114.685 61.4739C114.685 61.472 114.685 61.4702 114.685 61.4684C114.685 61.4666 114.685 61.4648 114.685 61.4629C114.685 61.4611 114.685 61.4593 114.685 61.4575C114.685 61.4556 114.685 61.4538 114.685 61.452C114.685 61.4502 114.685 61.4483 114.685 61.4465C114.685 61.4447 114.685 61.4428 114.685 61.441C114.685 61.4392 114.685 61.4373 114.685 61.4355C114.685 61.4337 114.685 61.4318 114.685 61.43C114.685 61.4281 114.685 61.4263 114.685 61.4245C114.685 61.4226 114.685 61.4208 114.685 61.4189C114.685 61.4171 114.685 61.4152 114.685 61.4134C114.685 61.4116 114.685 61.4097 114.685 61.4079C114.685 61.406 114.685 61.4042 114.685 61.4023C114.685 61.4005 114.685 61.3986 114.685 61.3967C114.685 61.3949 114.685 61.393 114.685 61.3912C114.685 61.3893 114.685 61.3875 114.685 61.3856C114.685 61.3837 114.685 61.3819 114.685 61.38C114.685 61.3781 114.685 61.3763 114.685 61.3744C114.685 61.3726 114.685 61.3707 114.685 61.3688C114.685 61.3669 114.685 61.3651 114.685 61.3632C114.685 61.3613 114.685 61.3595 114.685 61.3576C114.685 61.3557 114.685 61.3538 114.685 61.352C114.685 61.3501 114.685 61.3482 114.685 61.3463C114.685 61.3444 114.685 61.3426 114.685 61.3407C114.685 61.3388 114.685 61.3369 114.685 61.335C114.685 61.3331 114.685 61.3313 114.685 61.3294C114.685 61.3275 114.685 61.3256 114.685 61.3237C114.685 61.3218 114.685 61.3199 114.685 61.318C114.685 61.3161 114.685 61.3142 114.685 61.3123C114.685 61.3105 114.685 61.3086 114.685 61.3067C114.685 61.3048 114.685 61.3029 114.685 61.301C114.685 61.2991 114.685 61.2972 114.685 61.2953C114.685 61.2933 114.685 61.2914 114.685 61.2895C114.685 61.2876 114.685 61.2857 114.685 61.2838C114.685 61.2819 114.685 61.28 114.685 61.2781C114.685 61.2762 114.685 61.2743 114.685 61.2723C114.685 61.2704 114.685 61.2685 114.685 61.2666C114.685 61.2647 114.685 61.2628 114.685 61.2608C114.685 61.2589 114.685 61.257 114.685 61.2551C114.685 61.2531 114.685 61.2512 114.685 61.2493C114.685 61.2474 114.685 61.2454 114.685 61.2435C114.685 61.2416 114.685 61.2397 114.685 61.2377C114.685 61.2358 114.685 61.2339 114.685 61.2319C114.685 61.23 114.685 61.2281 114.685 61.2261C114.685 61.2242 114.685 61.2222 114.685 61.2203C114.685 61.2184 114.685 61.2164 114.685 61.2145C114.685 61.2125 114.685 61.2106 114.685 61.2087C114.685 61.2067 114.685 61.2048 114.685 61.2028C114.685 61.2009 114.685 61.1989 114.685 61.197C114.685 61.195 114.685 61.1931 114.685 61.1911C114.685 61.1892 114.685 61.1872 114.685 61.1853C114.685 61.1833 114.685 61.1813 114.685 61.1794C114.685 61.1774 114.685 61.1755 114.685 61.1735C114.685 61.1715 114.685 61.1696 114.685 61.1676C114.685 61.1657 114.685 61.1637 114.685 61.1617C114.685 61.1598 114.685 61.1578 114.685 61.1558C114.685 61.1538 114.685 61.1519 114.685 61.1499C114.685 61.1479 114.685 61.146 114.685 61.144C114.685 61.142 114.685 61.14 114.685 61.1381C114.685 61.1361 114.685 61.1341 114.685 61.1321C114.685 61.1301 114.685 61.1282 114.685 61.1262C114.685 61.1242 114.685 61.1222 114.685 61.1202C114.685 61.1182 114.685 61.1163 114.685 61.1143C114.685 61.1123 114.685 61.1103 114.685 61.1083C114.685 61.1063 114.685 61.1043 114.685 61.1023C114.685 61.1003 114.685 61.0983 114.685 61.0963C114.685 61.0943 114.685 61.0923 114.685 61.0903C114.685 61.0883 114.685 61.0863 114.685 61.0843C114.685 61.0823 114.685 61.0803 114.685 61.0783C114.685 61.0763 114.685 61.0743 114.685 61.0723C114.685 61.0703 114.685 61.0683 114.685 61.0663C114.685 61.0643 114.685 61.0623 114.685 61.0603C114.685 61.0582 114.685 61.0562 114.685 61.0542C114.685 61.0522 114.685 61.0502 114.685 61.0482C114.685 61.0461 114.685 61.0441 114.685 61.0421C114.685 61.0401 114.685 61.0381 114.685 61.036C114.685 61.034 114.685 61.032 114.685 61.03C114.685 61.0279 114.685 61.0259 114.685 61.0239C114.685 61.0219 114.685 61.0198 114.685 61.0178C114.685 61.0158 114.685 61.0137 114.685 61.0117C114.685 61.0097 114.685 61.0076 114.685 61.0056C114.685 61.0035 114.685 61.0015 114.685 60.9995C114.685 60.9974 114.685 60.9954 114.685 60.9933C114.685 60.9913 114.685 60.9893 114.685 60.9872C114.685 60.9852 114.685 60.9831 114.685 60.9811C114.685 60.979 114.685 60.977 114.685 60.9749C114.685 60.9729 114.685 60.9708 114.685 60.9688C114.685 60.9667 114.685 60.9647 114.685 60.9626C114.685 60.9605 114.685 60.9585 114.685 60.9564C114.685 60.9544 114.685 60.9523 114.685 60.9503C114.685 60.9482 114.685 60.9461 114.685 60.9441C114.685 60.942 114.685 60.9399 114.685 60.9379C114.685 60.9358 114.685 60.9337 114.685 60.9317C114.685 60.9296 114.685 60.9275 114.685 60.9254C114.685 60.9234 114.685 60.9213 114.685 60.9192C114.685 60.9171 114.685 60.9151 114.685 60.913C114.685 60.9109 114.685 60.9088 114.685 60.9068C114.685 60.9047 114.685 60.9026 114.685 60.9005C114.685 60.8984 114.685 60.8963 114.685 60.8943C114.685 60.8922 114.685 60.8901 114.685 60.888C114.685 60.8859 114.685 60.8838 114.685 60.8817C114.685 60.8796 114.685 60.8775 114.685 60.8754C114.685 60.8734 114.685 60.8713 114.685 60.8692C114.685 60.8671 114.685 60.865 114.685 60.8629C114.685 60.8608 114.685 60.8587 114.685 60.8566C114.685 60.8545 114.685 60.8524 114.685 60.8503C114.685 60.8481 114.685 60.846 114.685 60.8439C114.685 60.8418 114.685 60.8397 114.685 60.8376C114.685 60.8355 114.685 60.8334 114.685 60.8313C114.685 60.8292 114.685 60.827 114.685 60.8249C114.685 60.8228 114.685 60.8207 114.685 60.8186C114.685 60.8165 114.685 60.8143 114.685 60.8122C114.685 60.8101 114.685 60.808 114.685 60.8058C114.685 60.8037 114.685 60.8016 114.685 60.7995C114.685 60.7973 114.685 60.7952 114.685 60.7931C114.685 60.791 114.685 60.7888 114.685 60.7867C114.685 60.7846 114.685 60.7824 114.685 60.7803C114.685 60.7782 114.685 60.776 114.685 60.7739C114.685 60.7717 114.685 60.7696 114.685 60.7675C114.685 60.7653 114.685 60.7632 114.685 60.761C114.685 60.7589 114.685 60.7568 114.685 60.7546C114.685 60.7525 114.685 60.7503 114.685 60.7482C114.685 60.746 114.685 60.7439 114.685 60.7417C114.685 60.7396 114.685 60.7374 114.685 60.7353C114.685 60.7331 114.685 60.7309 114.685 60.7288C114.685 60.7266 114.685 60.7245 114.685 60.7223C114.685 60.7202 114.685 60.718 114.685 60.7158C114.685 60.7137 114.685 60.7115 114.685 60.7093H113.685ZM113.686 63.0014C113.712 63.3679 113.751 63.9857 113.804 64.8566L114.802 64.7961C114.75 63.9251 114.71 63.3026 114.683 62.9301L113.686 63.0014ZM113.806 64.873C113.885 65.7225 113.995 66.383 114.149 66.8155L115.091 66.4791C114.981 66.1727 114.88 65.6192 114.801 64.7796L113.806 64.873ZM114.16 66.8442C114.321 67.2184 114.534 67.6971 114.798 68.2793L115.709 67.8655C115.445 67.2865 115.236 66.8151 115.08 66.4503L114.16 66.8442ZM114.806 68.296C115.126 68.9362 115.543 69.4348 116.077 69.7354L116.567 68.8638C116.257 68.6893 115.961 68.3698 115.701 67.8488L114.806 68.296ZM116.054 69.7218C117.222 70.4624 118.544 70.8288 120.004 70.8288V69.8288C118.719 69.8288 117.586 69.5091 116.59 68.8773L116.054 69.7218ZM120.004 70.8288C121.223 70.8288 122.296 70.569 123.201 70.0249C124.107 69.4798 124.812 68.6685 125.323 67.6182L124.423 67.1807C123.984 68.0833 123.402 68.7367 122.685 69.168C121.967 69.6004 121.08 69.8288 120.004 69.8288V70.8288ZM125.373 67.3994V65.4993H124.373V67.3994H125.373ZM124.873 64.9993H121.468V65.9993H124.873V64.9993ZM121.968 65.4993V60.9073H120.968V65.4993H121.968ZM121.468 61.4073H129.584V60.4073H121.468V61.4073ZM129.084 60.9073V69.4183H130.084V60.9073H129.084ZM129.123 69.2229C128.347 71.0505 127.129 72.4148 125.462 73.3351L125.946 74.2105C127.816 73.1779 129.184 71.6392 130.044 69.6138L129.123 69.2229ZM125.462 73.3351C123.776 74.2663 121.855 74.7375 119.687 74.7375V75.7375C122.005 75.7375 124.096 75.2322 125.946 74.2105L125.462 73.3351ZM119.687 74.7375C115.79 74.7375 113.072 73.6557 111.406 71.5977L110.629 72.2269C112.552 74.6025 115.614 75.7375 119.687 75.7375V74.7375ZM111.41 71.6027C109.742 69.4864 108.865 66.2273 108.865 61.7386H107.865C107.865 66.3283 108.757 69.8517 110.625 72.2218L111.41 71.6027ZM167.298 46.8145H167.798V46.3145H167.298V46.8145ZM164.171 72.5852L163.848 72.2039L163.845 72.206L164.171 72.5852ZM148.851 72.5852L148.525 72.9645L148.528 72.9666L148.851 72.5852ZM145.763 46.8145V46.3145H145.263V46.8145H145.763ZM151.266 46.8145H151.766V46.3145H151.266V46.8145ZM152.691 69.0621L152.353 69.4306L152.358 69.4355L152.364 69.4402L152.691 69.0621ZM160.371 69.0621L160.698 69.4403L160.703 69.4352L160.371 69.0621ZM161.835 46.8145V46.3145H161.335V46.8145H161.835ZM166.798 46.8145V65.3409H167.798V46.8145H166.798ZM166.798 65.3409C166.798 68.2752 165.806 70.5428 163.848 72.2039L164.494 72.9666C166.706 71.0913 167.798 68.5294 167.798 65.3409H166.798ZM163.845 72.206C161.888 73.8869 159.461 74.7375 156.531 74.7375V75.7375C159.67 75.7375 162.337 74.8199 164.497 72.9645L163.845 72.206ZM156.531 74.7375C153.6 74.7375 151.159 73.8869 149.174 72.2039L148.528 72.9666C150.713 74.8199 153.391 75.7375 156.531 75.7375V74.7375ZM149.177 72.206C147.244 70.5456 146.263 68.2774 146.263 65.3409H145.263C145.263 68.5272 146.341 71.0885 148.525 72.9645L149.177 72.206ZM146.263 65.3409V46.8145H145.263V65.3409H146.263ZM145.763 47.3145H151.266V46.3145H145.763V47.3145ZM150.766 46.8145V65.143H151.766V46.8145H150.766ZM150.766 65.143C150.766 66.9736 151.267 68.4351 152.353 69.4306L153.029 68.6935C152.215 67.9472 151.766 66.796 151.766 65.143H150.766ZM152.364 69.4402C153.451 70.38 154.856 70.8288 156.531 70.8288V69.8288C155.039 69.8288 153.884 69.4331 153.018 68.6839L152.364 69.4402ZM156.531 70.8288C158.206 70.8288 159.611 70.38 160.698 69.4402L160.044 68.6839C159.177 69.4331 158.022 69.8288 156.531 69.8288V70.8288ZM160.703 69.4352C161.818 68.4407 162.335 66.9776 162.335 65.143H161.335C161.335 66.792 160.876 67.9416 160.038 68.6889L160.703 69.4352ZM162.335 65.143V46.8145H161.335V65.143H162.335ZM161.835 47.3145H167.298V46.3145H161.835V47.3145ZM202.885 75V75.5H203.385V75H202.885ZM186.219 73.377L185.89 73.7533L185.898 73.7604L186.219 73.377ZM184.319 46.8145V46.3145H183.819V46.8145H184.319ZM202.885 46.8145H203.385V46.3145H202.885V46.8145ZM202.885 51.7233V52.2233H203.385V51.7233H202.885ZM189.822 51.7233V51.2233H189.322V51.7233H189.822ZM189.822 58.3342H189.322V58.8342H189.822V58.3342ZM198.966 58.3342L199.464 58.3744L199.508 57.8342H198.966V58.3342ZM198.57 63.2429V63.7429H199.032L199.069 63.2831L198.57 63.2429ZM189.822 63.2429V62.7429H189.322V63.2429H189.822ZM190.574 69.4579L190.252 69.8404L190.252 69.8404L190.574 69.4579ZM202.885 70.0913H203.385V69.5913H202.885V70.0913ZM202.885 74.5H192.909V75.5H202.885V74.5ZM192.909 74.5C189.77 74.5 187.693 73.9577 186.54 72.9935L185.898 73.7604C187.332 74.9602 189.715 75.5 192.909 75.5V74.5ZM186.549 73.0007C185.444 72.0338 184.819 70.2751 184.819 67.5578H183.819C183.819 70.3825 184.461 72.5033 185.89 73.7532L186.549 73.0007ZM184.819 67.5578V46.8145H183.819V67.5578H184.819ZM184.319 47.3145H202.885V46.3145H184.319V47.3145ZM202.385 46.8145V51.7233H203.385V46.8145H202.385ZM202.885 51.2233H189.822V52.2233H202.885V51.2233ZM189.322 51.7233V58.3342H190.322V51.7233H189.322ZM189.822 58.8342H198.966V57.8342H189.822V58.8342ZM198.468 58.294L198.072 63.2027L199.069 63.2831L199.464 58.3744L198.468 58.294ZM198.57 62.7429H189.822V63.7429H198.57V62.7429ZM189.322 63.2429V67.1619H190.322V63.2429H189.322ZM189.322 67.1619C189.322 68.3195 189.579 69.2741 190.252 69.8404L190.896 69.0755C190.565 68.7972 190.322 68.2212 190.322 67.1619H189.322ZM190.252 69.8404C190.898 70.3849 191.969 70.5913 193.305 70.5913V69.5913C192.003 69.5913 191.252 69.3755 190.896 69.0755L190.252 69.8404ZM193.305 70.5913H202.885V69.5913H193.305V70.5913ZM202.385 70.0913V75H203.385V70.0913H202.385Z" fill="black"/>
<defs>
<filter id="filter0_i_302:4" x="3.02246" y="0.102707" width="199.098" height="41.5128" filterUnits="userSpaceOnUse" color-interpolation-filters="sRGB">
<feFlood flood-opacity="0" result="BackgroundImageFix"/>
<feBlend mode="normal" in="SourceGraphic" in2="BackgroundImageFix" result="shape"/>
<feColorMatrix in="SourceAlpha" type="matrix" values="0 0 0 0 0 0 0 0 0 0 0 0 0 0 0 0 0 0 127 0" result="hardAlpha"/>
<feOffset dy="3.29886"/>
<feGaussianBlur stdDeviation="1.64943"/>
<feComposite in2="hardAlpha" operator="arithmetic" k2="-1" k3="1"/>
<feColorMatrix type="matrix" values="0 0 0 0 0 0 0 0 0 0 0 0 0 0 0 0 0 0 0.25 0"/>
<feBlend mode="normal" in2="shape" result="effect1_innerShadow_302:4"/>
</filter>
<filter id="filter1_i_302:4" x="5.28394" y="46.577" width="197.601" height="34.4533" filterUnits="userSpaceOnUse" color-interpolation-filters="sRGB">
<feFlood flood-opacity="0" result="BackgroundImageFix"/>
<feBlend mode="normal" in="SourceGraphic" in2="BackgroundImageFix" result="shape"/>
<feColorMatrix in="SourceAlpha" type="matrix" values="0 0 0 0 0 0 0 0 0 0 0 0 0 0 0 0 0 0 127 0" result="hardAlpha"/>
<feOffset dy="5.7928"/>
<feGaussianBlur stdDeviation="2.8964"/>
<feComposite in2="hardAlpha" operator="arithmetic" k2="-1" k3="1"/>
<feColorMatrix type="matrix" values="0 0 0 0 0 0 0 0 0 0 0 0 0 0 0 0 0 0 0.25 0"/>
<feBlend mode="normal" in2="shape" result="effect1_innerShadow_302:4"/>
</filter>
</defs>
</svg>
