<svg width="166" height="162" viewBox="0 0 166 162" fill="none" xmlns="http://www.w3.org/2000/svg">
<g style="mix-blend-mode:luminosity" opacity="0.05" clip-path="url(#clip0_443_126)">
<path d="M83 162C128.84 162 166 125.735 166 81C166 36.2649 128.84 0 83 0C37.1604 0 0 36.2649 0 81C0 125.735 37.1604 162 83 162Z" fill="#6BD425"/>
<path opacity="0.42915" d="M39.7424 176.464C39.4632 176.464 39.1879 176.383 38.9384 176.225C10.3232 158.556 4.16008 139.932 0.0876405 107.718C-0.00272786 107.003 0.184826 106.277 0.59209 105.765L63.2066 24.2308C63.5437 23.8068 64.0011 23.5686 64.478 23.5686L136.343 78.7801C136.932 78.7801 137.484 79.1434 137.82 79.7525L135.293 80.1859C136.019 80.9557 136.144 82.3027 135.578 83.2615L64.4178 132.256C65.0509 131.508 65.7646 130.84 64.2453 132.507L41.0143 175.802C40.6771 176.227 40.2195 176.465 39.7424 176.464Z" fill="url(#paint0_linear_443_126)"/>
<path d="M65.7352 22.8716C63.5148 22.8744 61.7146 24.6287 61.7085 26.7956L61.4191 135.314C61.4103 138.699 65.4945 140.514 68.1054 138.286L137.553 83.2833C139.545 81.5829 139.346 78.5035 137.153 77.0597L67.9942 23.543C67.3267 23.1042 66.54 22.8704 65.7352 22.8716ZM69.7521 34.1901L128.302 80.7262L69.5061 126.633L69.7521 34.1901Z" fill="white"/>
</g>
<defs>
<linearGradient id="paint0_linear_443_126" x1="90.4037" y1="53.2772" x2="20.1912" y2="109.123" gradientUnits="userSpaceOnUse">
<stop/>
<stop offset="1" stop-opacity="0"/>
</linearGradient>
<clipPath id="clip0_443_126">
<rect width="166" height="162" fill="white"/>
</clipPath>
</defs>
</svg>
