<svg width="40" height="40" viewBox="0 0 40 40" fill="none" xmlns="http://www.w3.org/2000/svg">
<g clip-path="url(#clip0_511_205)">
<path d="M23.6667 3C14.4667 3 7 10.4667 7 19.6667C7 28.8667 14.4667 36.3333 23.6667 36.3333C32.8667 36.3333 40.3333 28.8667 40.3333 19.6667C40.3333 10.4667 32.8667 3 23.6667 3ZM23.6667 9.66667C26.8833 9.66667 29.5 12.2833 29.5 15.5C29.5 18.7167 26.8833 21.3333 23.6667 21.3333C20.45 21.3333 17.8333 18.7167 17.8333 15.5C17.8333 12.2833 20.45 9.66667 23.6667 9.66667ZM23.6667 33C20.2833 33 16.2833 31.6333 13.4333 28.2C16.3527 25.9095 19.956 24.6647 23.6667 24.6647C27.3773 24.6647 30.9807 25.9095 33.9 28.2C31.05 31.6333 27.05 33 23.6667 33Z" fill="white"/>
</g>
<defs>
<clipPath id="clip0_511_205">
<rect width="40" height="40" fill="white"/>
</clipPath>
</defs>
</svg>
