<svg width="32" height="32" viewBox="0 0 32 32" fill="none" xmlns="http://www.w3.org/2000/svg">
<path d="M11.4752 22.7872L16 18.2624L20.5248 22.7872L22.7872 20.5248L18.2624 16L22.7872 11.4752L20.5248 9.21277L16 13.7376L11.4752 9.21277L9.21283 11.4752L13.7376 16L9.21283 20.5248L11.4752 22.7872Z" />
<path d="M16 32C24.8224 32 32 24.8224 32 16C32 7.1776 24.8224 0 16 0C7.1776 0 0 7.1776 0 16C0 24.8224 7.1776 32 16 32ZM16 3.2C23.0576 3.2 28.8 8.9424 28.8 16C28.8 23.0576 23.0576 28.8 16 28.8C8.9424 28.8 3.2 23.0576 3.2 16C3.2 8.9424 8.9424 3.2 16 3.2Z" />
</svg>
